<svg width="500" height="500" viewBox="0 0 500 500" fill="none" xmlns="http://www.w3.org/2000/svg">
<path d="M432.952 301.415C454.113 283.196 469.405 260.539 477.322 235.676C485.238 210.814 485.506 184.601 478.1 159.622C449.124 153.238 418.72 153.471 389.88 160.297C361.04 167.122 334.759 180.306 313.626 198.548C292.464 216.767 277.171 239.422 269.253 264.284C261.335 289.146 261.066 315.357 268.471 340.337C297.448 346.722 327.853 346.492 356.694 339.667C385.535 332.842 411.817 319.659 432.952 301.415Z" fill="#87D303"/>
<path d="M67.5126 301.451C46.351 283.232 31.059 260.575 23.1423 235.712C15.2255 210.849 14.9571 184.637 22.3635 159.657C51.3393 153.274 81.7441 153.507 110.584 160.332C139.424 167.158 165.705 180.341 186.838 198.584C208 216.803 223.292 239.46 231.209 264.323C239.125 289.186 239.394 315.398 231.986 340.378C203.011 346.761 172.606 346.529 143.766 339.704C114.925 332.878 88.6454 319.694 67.5126 301.451Z" fill="#A5DF40"/>
</svg>
