<svg width="251" height="46" viewBox="0 0 251 46" fill="none" xmlns="http://www.w3.org/2000/svg">
<g clip-path="url(#clip0_2006_1512)">
<mask id="mask0_2006_1512" style="mask-type:luminance" maskUnits="userSpaceOnUse" x="0" y="8" width="61" height="30">
<path d="M60.5 8.50403H0.5V37.504H60.5V8.50403Z" fill="white"/>
</mask>
<g mask="url(#mask0_2006_1512)">
<path d="M53.5072 30.6238C56.1625 27.9719 58.0814 24.674 59.0748 21.055C60.0682 17.4361 60.1018 13.6207 59.1725 9.98474C55.5366 9.0556 51.7214 9.08946 48.1025 10.083C44.4837 11.0765 41.186 12.9955 38.5342 15.6508C35.8787 18.3026 33.9597 21.6003 32.9662 25.2191C31.9727 28.838 31.9389 32.6532 32.8681 36.2892C36.5041 37.2186 40.3194 37.185 43.9384 36.1916C47.5574 35.1982 50.8552 33.2793 53.5072 30.6238Z" fill="#87D303"/>
<path d="M7.65183 30.6291C4.99646 27.9772 3.07761 24.6793 2.08421 21.0604C1.09081 17.4414 1.05713 13.6261 1.98649 9.99012C5.6224 9.06098 9.43761 9.09484 13.0564 10.0883C16.6753 11.0819 19.973 13.0008 22.6248 15.6561C25.2802 18.3081 27.1991 21.6059 28.1925 25.2249C29.1859 28.8439 29.2196 32.6592 28.2901 36.2952C24.6542 37.2244 20.839 37.1906 17.2201 36.1971C13.6012 35.2036 10.3036 33.2846 7.65183 30.6291Z" fill="#A5DF40"/>
</g>
<path d="M239.837 22.89C239.577 22.89 239.347 22.81 239.147 22.65C238.967 22.49 238.877 22.31 238.877 22.11V0.749999C238.877 0.509999 238.967 0.329999 239.147 0.209999C239.347 0.0699997 239.577 0 239.837 0C240.117 0 240.347 0.0699997 240.527 0.209999C240.727 0.329999 240.827 0.509999 240.827 0.749999V10.8C241.167 10.22 241.667 9.7 242.327 9.24C242.987 8.76 243.807 8.52 244.787 8.52C245.747 8.52 246.627 8.78 247.427 9.3C248.247 9.8 248.897 10.48 249.377 11.34C249.857 12.18 250.097 13.12 250.097 14.16V22.11C250.097 22.37 249.997 22.57 249.797 22.71C249.597 22.83 249.367 22.89 249.107 22.89C248.887 22.89 248.667 22.83 248.447 22.71C248.247 22.57 248.147 22.37 248.147 22.11V14.16C248.147 13.5 247.977 12.88 247.637 12.3C247.297 11.72 246.847 11.25 246.287 10.89C245.727 10.51 245.107 10.32 244.427 10.32C243.827 10.32 243.247 10.48 242.687 10.8C242.147 11.1 241.697 11.53 241.337 12.09C240.997 12.65 240.827 13.34 240.827 14.16V22.11C240.827 22.31 240.727 22.49 240.527 22.65C240.347 22.81 240.117 22.89 239.837 22.89Z" fill="#333333"/>
<path d="M230.324 23.1C229.004 23.1 227.914 22.85 227.054 22.35C226.194 21.85 225.554 21.17 225.134 20.31C224.714 19.45 224.504 18.48 224.504 17.4V14.22C224.504 13.14 224.704 12.17 225.104 11.31C225.524 10.45 226.164 9.77002 227.024 9.27002C227.904 8.77002 229.004 8.52002 230.324 8.52002C231.164 8.52002 231.894 8.63002 232.514 8.85002C233.154 9.05002 233.644 9.30002 233.984 9.60002C234.344 9.90002 234.524 10.19 234.524 10.47C234.524 10.61 234.484 10.76 234.404 10.92C234.344 11.06 234.244 11.18 234.104 11.28C233.984 11.38 233.844 11.43 233.684 11.43C233.504 11.43 233.294 11.34 233.054 11.16C232.834 10.96 232.524 10.77 232.124 10.59C231.724 10.41 231.154 10.32 230.414 10.32C229.114 10.32 228.124 10.67 227.444 11.37C226.784 12.05 226.454 13 226.454 14.22V17.4C226.454 18.62 226.784 19.58 227.444 20.28C228.124 20.96 229.124 21.3 230.444 21.3C231.204 21.3 231.794 21.21 232.214 21.03C232.634 20.83 232.954 20.64 233.174 20.46C233.414 20.26 233.634 20.16 233.834 20.16C234.014 20.16 234.164 20.21 234.284 20.31C234.424 20.41 234.524 20.53 234.584 20.67C234.664 20.81 234.704 20.96 234.704 21.12C234.704 21.38 234.524 21.67 234.164 21.99C233.804 22.29 233.294 22.55 232.634 22.77C231.994 22.99 231.224 23.1 230.324 23.1Z" fill="#333333"/>
<path d="M209.62 22.89C209.36 22.89 209.13 22.81 208.93 22.65C208.75 22.49 208.66 22.31 208.66 22.11V9.45002C208.66 9.21002 208.75 9.03002 208.93 8.91002C209.13 8.77002 209.36 8.70002 209.62 8.70002C209.88 8.70002 210.1 8.77002 210.28 8.91002C210.46 9.03002 210.55 9.21002 210.55 9.45002V10.8C210.87 10.22 211.37 9.70002 212.05 9.24002C212.73 8.76002 213.57 8.52002 214.57 8.52002C215.53 8.52002 216.41 8.78002 217.21 9.30002C218.03 9.80002 218.68 10.48 219.16 11.34C219.64 12.18 219.88 13.12 219.88 14.16V22.11C219.88 22.37 219.78 22.57 219.58 22.71C219.38 22.83 219.15 22.89 218.89 22.89C218.67 22.89 218.45 22.83 218.23 22.71C218.03 22.57 217.93 22.37 217.93 22.11V14.16C217.93 13.5 217.76 12.88 217.42 12.3C217.08 11.72 216.63 11.25 216.07 10.89C215.51 10.51 214.89 10.32 214.21 10.32C213.61 10.32 213.03 10.48 212.47 10.8C211.93 11.1 211.48 11.53 211.12 12.09C210.78 12.65 210.61 13.34 210.61 14.16V22.11C210.61 22.31 210.51 22.49 210.31 22.65C210.13 22.81 209.9 22.89 209.62 22.89Z" fill="#333333"/>
<path d="M197.887 23.0999C196.827 23.0999 195.857 22.8399 194.977 22.3199C194.117 21.7999 193.427 21.1099 192.907 20.2499C192.407 19.3699 192.157 18.4399 192.157 17.4599V9.47995C192.157 9.27995 192.257 9.09995 192.457 8.93995C192.657 8.77995 192.887 8.69995 193.147 8.69995C193.407 8.69995 193.627 8.77995 193.807 8.93995C194.007 9.09995 194.107 9.27995 194.107 9.47995V17.4599C194.107 18.1199 194.277 18.7399 194.617 19.3199C194.957 19.8999 195.407 20.3799 195.967 20.7599C196.527 21.1199 197.157 21.2999 197.857 21.2999C198.577 21.2999 199.217 21.1199 199.777 20.7599C200.337 20.3999 200.777 19.9299 201.097 19.3499C201.437 18.7499 201.607 18.1199 201.607 17.4599V9.44995C201.607 9.22995 201.707 9.04995 201.907 8.90995C202.107 8.76995 202.337 8.69995 202.597 8.69995C202.897 8.69995 203.127 8.76995 203.287 8.90995C203.467 9.04995 203.557 9.22995 203.557 9.44995V17.4599C203.557 18.4799 203.297 19.4199 202.777 20.2799C202.277 21.1199 201.587 21.7999 200.707 22.3199C199.847 22.8399 198.907 23.0999 197.887 23.0999Z" fill="#333333"/>
<path d="M180.772 23.1C179.632 23.1 178.662 22.78 177.862 22.14C177.082 21.48 176.692 20.48 176.692 19.14C176.692 18.04 176.982 17.2 177.562 16.62C178.162 16.02 178.982 15.61 180.022 15.39C181.082 15.15 182.302 15.03 183.682 15.03H185.212V14.34C185.212 13.68 185.092 13.04 184.852 12.42C184.632 11.78 184.262 11.26 183.742 10.86C183.242 10.44 182.552 10.23 181.672 10.23C181.012 10.23 180.472 10.3 180.052 10.44C179.632 10.58 179.302 10.73 179.062 10.89C178.822 11.03 178.622 11.1 178.462 11.1C178.222 11.1 178.022 10.98 177.862 10.74C177.722 10.5 177.652 10.28 177.652 10.08C177.652 9.80002 177.862 9.55002 178.282 9.33002C178.702 9.09002 179.222 8.90002 179.842 8.76002C180.482 8.60002 181.112 8.52002 181.732 8.52002C183.072 8.52002 184.132 8.80002 184.912 9.36002C185.712 9.90002 186.282 10.61 186.622 11.49C186.982 12.37 187.162 13.31 187.162 14.31V22.11C187.162 22.33 187.072 22.52 186.892 22.68C186.732 22.82 186.502 22.89 186.202 22.89C185.962 22.89 185.742 22.82 185.542 22.68C185.362 22.52 185.272 22.33 185.272 22.11V20.79C184.772 21.39 184.152 21.93 183.412 22.41C182.672 22.87 181.792 23.1 180.772 23.1ZM181.252 21.45C181.912 21.45 182.542 21.28 183.142 20.94C183.742 20.6 184.232 20.19 184.612 19.71C185.012 19.21 185.212 18.74 185.212 18.3V16.38H183.952C183.052 16.38 182.192 16.44 181.372 16.56C180.572 16.66 179.912 16.89 179.392 17.25C178.892 17.61 178.642 18.18 178.642 18.96C178.642 19.82 178.892 20.45 179.392 20.85C179.912 21.25 180.532 21.45 181.252 21.45Z" fill="#333333"/>
<path d="M163.586 22.8899C163.366 22.8899 163.156 22.8299 162.956 22.7099C162.776 22.5699 162.686 22.3699 162.686 22.1099V1.70996C162.686 1.44996 162.786 1.25996 162.986 1.13996C163.186 1.01996 163.416 0.959961 163.676 0.959961C163.916 0.959961 164.136 1.01996 164.336 1.13996C164.556 1.25996 164.666 1.44996 164.666 1.70996V21.0599H173.216C173.456 21.0599 173.626 21.1599 173.726 21.3599C173.826 21.5399 173.876 21.7399 173.876 21.9599C173.876 22.1999 173.826 22.4199 173.726 22.6199C173.626 22.7999 173.456 22.8899 173.216 22.8899H163.586Z" fill="#333333"/>
<path d="M144.317 22.89C144.057 22.89 143.827 22.81 143.627 22.65C143.447 22.49 143.357 22.31 143.357 22.11V9.45002C143.357 9.21002 143.447 9.03002 143.627 8.91002C143.827 8.77002 144.057 8.70002 144.317 8.70002C144.577 8.70002 144.797 8.77002 144.977 8.91002C145.157 9.03002 145.247 9.21002 145.247 9.45002V10.92C145.467 10.5 145.767 10.11 146.147 9.75002C146.527 9.39002 146.977 9.10002 147.497 8.88002C148.017 8.64002 148.607 8.52002 149.267 8.52002H150.317C150.537 8.52002 150.717 8.61002 150.857 8.79002C151.017 8.97002 151.097 9.18002 151.097 9.42002C151.097 9.68002 151.017 9.90002 150.857 10.08C150.717 10.24 150.537 10.32 150.317 10.32H149.267C148.607 10.32 147.967 10.5 147.347 10.86C146.747 11.22 146.257 11.72 145.877 12.36C145.497 13 145.307 13.78 145.307 14.7V22.11C145.307 22.31 145.207 22.49 145.007 22.65C144.827 22.81 144.597 22.89 144.317 22.89Z" fill="#333333"/>
<path d="M134.056 23.1C132.796 23.1 131.676 22.86 130.696 22.38C129.736 21.9 128.976 21.24 128.416 20.4C127.876 19.54 127.606 18.54 127.606 17.4V14.07C127.606 13.07 127.866 12.15 128.386 11.31C128.906 10.45 129.596 9.77002 130.456 9.27002C131.336 8.77002 132.296 8.52002 133.336 8.52002C134.336 8.52002 135.256 8.76002 136.096 9.24002C136.956 9.70002 137.646 10.34 138.166 11.16C138.686 11.98 138.946 12.93 138.946 14.01C138.946 14.77 138.816 15.32 138.556 15.66C138.296 16 137.966 16.21 137.566 16.29C137.186 16.35 136.776 16.38 136.336 16.38H129.556V17.49C129.556 18.69 129.986 19.64 130.846 20.34C131.706 21.04 132.796 21.39 134.116 21.39C134.916 21.39 135.536 21.29 135.976 21.09C136.416 20.89 136.756 20.69 136.996 20.49C137.256 20.29 137.496 20.19 137.716 20.19C137.876 20.19 138.016 20.25 138.136 20.37C138.276 20.47 138.376 20.59 138.436 20.73C138.516 20.87 138.556 21 138.556 21.12C138.556 21.34 138.376 21.61 138.016 21.93C137.656 22.25 137.136 22.53 136.456 22.77C135.776 22.99 134.976 23.1 134.056 23.1ZM129.556 14.94H135.556C136.156 14.94 136.556 14.88 136.756 14.76C136.956 14.62 137.056 14.34 137.056 13.92C137.056 13.28 136.896 12.68 136.576 12.12C136.256 11.54 135.816 11.07 135.256 10.71C134.696 10.33 134.046 10.14 133.306 10.14C132.626 10.14 131.996 10.31 131.416 10.65C130.856 10.99 130.406 11.43 130.066 11.97C129.726 12.51 129.556 13.12 129.556 13.8V14.94Z" fill="#333333"/>
<path d="M118.816 23.1C117.556 23.1 116.436 22.86 115.456 22.38C114.496 21.9 113.736 21.24 113.176 20.4C112.636 19.54 112.366 18.54 112.366 17.4V14.07C112.366 13.07 112.626 12.15 113.146 11.31C113.666 10.45 114.356 9.77002 115.216 9.27002C116.096 8.77002 117.056 8.52002 118.096 8.52002C119.096 8.52002 120.016 8.76002 120.856 9.24002C121.716 9.70002 122.406 10.34 122.926 11.16C123.446 11.98 123.706 12.93 123.706 14.01C123.706 14.77 123.576 15.32 123.316 15.66C123.056 16 122.726 16.21 122.326 16.29C121.946 16.35 121.536 16.38 121.096 16.38H114.316V17.49C114.316 18.69 114.746 19.64 115.606 20.34C116.466 21.04 117.556 21.39 118.876 21.39C119.676 21.39 120.296 21.29 120.736 21.09C121.176 20.89 121.516 20.69 121.756 20.49C122.016 20.29 122.256 20.19 122.476 20.19C122.636 20.19 122.776 20.25 122.896 20.37C123.036 20.47 123.136 20.59 123.196 20.73C123.276 20.87 123.316 21 123.316 21.12C123.316 21.34 123.136 21.61 122.776 21.93C122.416 22.25 121.896 22.53 121.216 22.77C120.536 22.99 119.736 23.1 118.816 23.1ZM114.316 14.94H120.316C120.916 14.94 121.316 14.88 121.516 14.76C121.716 14.62 121.816 14.34 121.816 13.92C121.816 13.28 121.656 12.68 121.336 12.12C121.016 11.54 120.576 11.07 120.016 10.71C119.456 10.33 118.806 10.14 118.066 10.14C117.386 10.14 116.756 10.31 116.176 10.65C115.616 10.99 115.166 11.43 114.826 11.97C114.486 12.51 114.316 13.12 114.316 13.8V14.94Z" fill="#333333"/>
<path d="M103.079 22.89C102.819 22.89 102.589 22.81 102.389 22.65C102.209 22.49 102.119 22.31 102.119 22.11V9.45002C102.119 9.21002 102.209 9.03002 102.389 8.91002C102.589 8.77002 102.819 8.70002 103.079 8.70002C103.339 8.70002 103.559 8.77002 103.739 8.91002C103.919 9.03002 104.009 9.21002 104.009 9.45002V10.92C104.229 10.5 104.529 10.11 104.909 9.75002C105.289 9.39002 105.739 9.10002 106.259 8.88002C106.779 8.64002 107.369 8.52002 108.029 8.52002H109.079C109.299 8.52002 109.479 8.61002 109.619 8.79002C109.779 8.97002 109.859 9.18002 109.859 9.42002C109.859 9.68002 109.779 9.90002 109.619 10.08C109.479 10.24 109.299 10.32 109.079 10.32H108.029C107.369 10.32 106.729 10.5 106.109 10.86C105.509 11.22 105.019 11.72 104.639 12.36C104.259 13 104.069 13.78 104.069 14.7V22.11C104.069 22.31 103.969 22.49 103.769 22.65C103.589 22.81 103.359 22.89 103.079 22.89Z" fill="#333333"/>
<path d="M90.6142 23.1C89.4742 23.1 88.5042 22.78 87.7042 22.14C86.9242 21.48 86.5342 20.48 86.5342 19.14C86.5342 18.04 86.8242 17.2 87.4042 16.62C88.0042 16.02 88.8242 15.61 89.8642 15.39C90.9242 15.15 92.1442 15.03 93.5242 15.03H95.0542V14.34C95.0542 13.68 94.9342 13.04 94.6942 12.42C94.4742 11.78 94.1042 11.26 93.5842 10.86C93.0842 10.44 92.3942 10.23 91.5142 10.23C90.8542 10.23 90.3142 10.3 89.8942 10.44C89.4742 10.58 89.1442 10.73 88.9042 10.89C88.6642 11.03 88.4642 11.1 88.3042 11.1C88.0642 11.1 87.8642 10.98 87.7042 10.74C87.5642 10.5 87.4942 10.28 87.4942 10.08C87.4942 9.80002 87.7042 9.55002 88.1242 9.33002C88.5442 9.09002 89.0642 8.90002 89.6842 8.76002C90.3242 8.60002 90.9542 8.52002 91.5742 8.52002C92.9142 8.52002 93.9742 8.80002 94.7542 9.36002C95.5542 9.90002 96.1242 10.61 96.4642 11.49C96.8242 12.37 97.0042 13.31 97.0042 14.31V22.11C97.0042 22.33 96.9142 22.52 96.7342 22.68C96.5742 22.82 96.3442 22.89 96.0442 22.89C95.8042 22.89 95.5842 22.82 95.3842 22.68C95.2042 22.52 95.1142 22.33 95.1142 22.11V20.79C94.6142 21.39 93.9942 21.93 93.2542 22.41C92.5142 22.87 91.6342 23.1 90.6142 23.1ZM91.0942 21.45C91.7542 21.45 92.3842 21.28 92.9842 20.94C93.5842 20.6 94.0742 20.19 94.4542 19.71C94.8542 19.21 95.0542 18.74 95.0542 18.3V16.38H93.7942C92.8942 16.38 92.0342 16.44 91.2142 16.56C90.4142 16.66 89.7542 16.89 89.2342 17.25C88.7342 17.61 88.4842 18.18 88.4842 18.96C88.4842 19.82 88.7342 20.45 89.2342 20.85C89.7542 21.25 90.3742 21.45 91.0942 21.45Z" fill="#333333"/>
<path d="M76.74 23.0699C75.62 23.0699 74.58 22.8599 73.62 22.4399C72.66 22.0199 71.9 21.3399 71.34 20.3999C70.78 19.4599 70.5 18.2099 70.5 16.6499V7.37996C70.5 5.81996 70.79 4.56996 71.37 3.62996C71.95 2.68996 72.71 2.00996 73.65 1.58996C74.61 1.16996 75.66 0.959961 76.8 0.959961C78.12 0.959961 79.24 1.18996 80.16 1.64996C81.08 2.10996 81.78 2.71996 82.26 3.47996C82.76 4.23996 83.01 5.07996 83.01 5.99996C83.01 6.47996 82.92 6.79996 82.74 6.95996C82.58 7.09996 82.34 7.16996 82.02 7.16996C81.66 7.16996 81.4 7.09996 81.24 6.95996C81.1 6.79996 81.02 6.61996 81 6.41996C81 6.09996 80.94 5.73996 80.82 5.33996C80.72 4.91996 80.52 4.51996 80.22 4.13996C79.94 3.73996 79.52 3.41996 78.96 3.17996C78.42 2.91996 77.71 2.78996 76.83 2.78996C75.43 2.78996 74.36 3.16996 73.62 3.92996C72.88 4.66996 72.51 5.81996 72.51 7.37996V16.6499C72.51 18.2299 72.88 19.3899 73.62 20.1299C74.38 20.8699 75.48 21.2399 76.92 21.2399C77.82 21.2399 78.53 21.1199 79.05 20.8799C79.57 20.6199 79.96 20.3099 80.22 19.9499C80.48 19.5699 80.66 19.1699 80.76 18.7499C80.88 18.3099 80.96 17.9099 81 17.5499C81.04 17.2899 81.13 17.0999 81.27 16.9799C81.43 16.8399 81.67 16.7699 81.99 16.7699C82.33 16.7699 82.58 16.8599 82.74 17.0399C82.92 17.1999 83.01 17.5199 83.01 17.9999C83.01 18.8999 82.76 19.7399 82.26 20.5199C81.76 21.2799 81.04 21.8999 80.1 22.3799C79.18 22.8399 78.06 23.0699 76.74 23.0699Z" fill="#333333"/>
<path d="M148.752 44.208L148.14 43.716C148.148 43.604 148.152 43.412 148.152 43.14C148.16 42.86 148.164 42.54 148.164 42.18C148.172 41.812 148.176 41.432 148.176 41.04C148.176 40.648 148.176 40.284 148.176 39.948C148.176 39.38 148.172 38.82 148.164 38.268C148.164 37.716 148.156 37.28 148.14 36.96H149.304C149.296 37.112 149.288 37.36 149.28 37.704C149.28 38.04 149.276 38.408 149.268 38.808C149.268 39.2 149.268 39.564 149.268 39.9V42.72C149.604 42.568 149.98 42.384 150.396 42.168C150.812 41.952 151.224 41.724 151.632 41.484C152.04 41.244 152.412 41.008 152.748 40.776C153.084 40.544 153.344 40.34 153.528 40.164C153.528 40.268 153.54 40.408 153.564 40.584C153.588 40.76 153.616 40.928 153.648 41.088C153.688 41.24 153.716 41.348 153.732 41.412C153.468 41.636 153.12 41.884 152.688 42.156C152.264 42.42 151.808 42.688 151.32 42.96C150.84 43.224 150.372 43.468 149.916 43.692C149.46 43.908 149.072 44.08 148.752 44.208ZM143.52 44.592C143.472 44.512 143.4 44.416 143.304 44.304C143.208 44.192 143.104 44.084 142.992 43.98C142.888 43.868 142.796 43.78 142.716 43.716C143.596 43.252 144.256 42.72 144.696 42.12C145.136 41.52 145.408 40.832 145.512 40.056C145.616 39.272 145.596 38.388 145.452 37.404L146.532 37.308C146.7 38.436 146.712 39.452 146.568 40.356C146.432 41.252 146.116 42.048 145.62 42.744C145.124 43.44 144.424 44.056 143.52 44.592Z" fill="#333333"/>
<path d="M128.879 41.124C128.879 41.052 128.879 40.94 128.879 40.788C128.879 40.628 128.879 40.472 128.879 40.32C128.879 40.168 128.875 40.056 128.867 39.984C129.067 39.992 129.367 40 129.767 40.008C130.167 40.008 130.631 40.012 131.159 40.02C131.695 40.02 132.259 40.024 132.851 40.032C133.451 40.032 134.047 40.032 134.639 40.032C135.239 40.032 135.803 40.032 136.331 40.032C136.859 40.024 137.323 40.016 137.723 40.008C138.123 40 138.419 39.992 138.611 39.984C138.611 40.008 138.611 40.044 138.611 40.092C138.611 40.14 138.611 40.192 138.611 40.248C138.611 40.392 138.607 40.556 138.599 40.74C138.599 40.916 138.603 41.04 138.611 41.112C138.363 41.104 137.995 41.096 137.507 41.088C137.019 41.08 136.459 41.076 135.827 41.076C135.203 41.068 134.551 41.064 133.871 41.064C133.191 41.064 132.527 41.068 131.879 41.076C131.231 41.076 130.643 41.08 130.115 41.088C129.595 41.096 129.183 41.108 128.879 41.124Z" fill="#333333"/>
<path d="M115.86 45.42C115.82 45.332 115.756 45.224 115.668 45.096C115.58 44.968 115.488 44.844 115.392 44.724C115.304 44.604 115.224 44.512 115.152 44.448C116.136 44.056 117.06 43.556 117.924 42.948C118.788 42.34 119.556 41.648 120.228 40.872C120.908 40.096 121.448 39.276 121.848 38.412C121.6 38.42 121.324 38.432 121.02 38.448C120.724 38.464 120.428 38.476 120.132 38.484C119.844 38.492 119.584 38.5 119.352 38.508C119.128 38.516 118.96 38.52 118.848 38.52C118.032 39.592 117.068 40.5 115.956 41.244C115.908 41.18 115.828 41.096 115.716 40.992C115.612 40.888 115.504 40.788 115.392 40.692C115.28 40.588 115.184 40.512 115.104 40.464C115.704 40.112 116.272 39.68 116.808 39.168C117.344 38.656 117.816 38.1 118.224 37.5C118.632 36.9 118.948 36.304 119.172 35.712L120.228 36.096C120.132 36.336 120.024 36.572 119.904 36.804C119.792 37.036 119.668 37.264 119.532 37.488C119.796 37.48 120.088 37.472 120.408 37.464C120.736 37.456 121.056 37.448 121.368 37.44C121.68 37.424 121.952 37.412 122.184 37.404C122.424 37.388 122.58 37.376 122.652 37.368L123.324 37.764C122.94 38.868 122.384 39.908 121.656 40.884C120.928 41.86 120.068 42.736 119.076 43.512C118.092 44.28 117.02 44.916 115.86 45.42Z" fill="#333333"/>
<path d="M101.003 44.736C100.923 44.616 100.811 44.456 100.667 44.256C100.531 44.048 100.403 43.896 100.283 43.8C100.899 43.536 101.515 43.2 102.131 42.792C102.747 42.384 103.335 41.928 103.895 41.424C104.455 40.912 104.963 40.372 105.419 39.804C105.875 39.228 106.251 38.648 106.547 38.064C106.179 38.088 105.759 38.116 105.287 38.148C104.823 38.172 104.351 38.2 103.871 38.232C103.399 38.264 102.963 38.292 102.563 38.316C102.163 38.34 101.847 38.36 101.615 38.376L101.483 37.212C101.675 37.212 101.967 37.208 102.359 37.2C102.751 37.192 103.187 37.18 103.667 37.164C104.155 37.14 104.639 37.116 105.119 37.092C105.607 37.06 106.043 37.032 106.427 37.008C106.819 36.976 107.107 36.944 107.291 36.912L108.035 37.392C107.835 37.944 107.579 38.484 107.267 39.012C106.963 39.54 106.611 40.052 106.211 40.548C106.483 40.764 106.775 41.008 107.087 41.28C107.399 41.552 107.707 41.836 108.011 42.132C108.315 42.42 108.599 42.7 108.863 42.972C109.127 43.236 109.343 43.476 109.511 43.692C109.375 43.78 109.211 43.908 109.019 44.076C108.835 44.236 108.687 44.384 108.575 44.52C108.415 44.296 108.211 44.048 107.963 43.776C107.723 43.496 107.459 43.212 107.171 42.924C106.883 42.628 106.595 42.344 106.307 42.072C106.019 41.8 105.755 41.564 105.515 41.364C104.851 42.076 104.127 42.724 103.343 43.308C102.559 43.884 101.779 44.36 101.003 44.736Z" fill="#333333"/>
<path d="M89.2079 45.672V41.316H91.5599V39.492H88.2479V38.496H91.5599V36.792C90.5519 36.888 89.6959 36.944 88.9919 36.96C88.9599 36.848 88.9159 36.684 88.8599 36.468C88.8039 36.252 88.7479 36.088 88.6919 35.976C89.1319 35.984 89.6199 35.972 90.1559 35.94C90.6999 35.908 91.2519 35.864 91.8119 35.808C92.3719 35.744 92.8999 35.672 93.3959 35.592C93.8919 35.504 94.3159 35.412 94.6679 35.316L95.3159 36.216C94.9959 36.304 94.5999 36.388 94.1279 36.468C93.6639 36.54 93.1679 36.608 92.6399 36.672V38.496H95.9879V39.492H92.6399V41.316H95.0399V45.672H89.2079ZM90.2999 44.712H93.9599V42.276H90.2999V44.712ZM86.1479 45.768L85.1879 45.072C85.3639 44.848 85.5519 44.572 85.7519 44.244C85.9599 43.916 86.1639 43.568 86.3639 43.2C86.5639 42.824 86.7439 42.464 86.9039 42.12C87.0719 41.768 87.1999 41.464 87.2879 41.208C87.3519 41.264 87.4399 41.34 87.5519 41.436C87.6639 41.532 87.7759 41.624 87.8879 41.712C88.0079 41.792 88.1039 41.852 88.1759 41.892C88.0959 42.14 87.9719 42.436 87.8039 42.78C87.6439 43.124 87.4639 43.484 87.2639 43.86C87.0639 44.236 86.8639 44.592 86.6639 44.928C86.4719 45.264 86.2999 45.544 86.1479 45.768ZM87.1439 40.308C86.9999 40.172 86.7999 40.016 86.5439 39.84C86.2879 39.656 86.0239 39.48 85.7519 39.312C85.4799 39.136 85.2439 39.008 85.0439 38.928L85.6079 38.016C85.8319 38.12 86.0759 38.252 86.3399 38.412C86.6119 38.564 86.8759 38.724 87.1319 38.892C87.3879 39.06 87.5999 39.224 87.7679 39.384C87.7279 39.432 87.6639 39.52 87.5759 39.648C87.4879 39.768 87.3999 39.892 87.3119 40.02C87.2319 40.148 87.1759 40.244 87.1439 40.308ZM87.7439 37.608C87.5999 37.472 87.3999 37.312 87.1439 37.128C86.8879 36.944 86.6239 36.768 86.3519 36.6C86.0799 36.432 85.8439 36.308 85.6439 36.228L86.2079 35.34C86.4159 35.428 86.6599 35.552 86.9399 35.712C87.2199 35.872 87.4919 36.04 87.7559 36.216C88.0199 36.392 88.2279 36.552 88.3799 36.696C88.3399 36.744 88.2759 36.832 88.1879 36.96C88.0999 37.08 88.0119 37.204 87.9239 37.332C87.8359 37.452 87.7759 37.544 87.7439 37.608Z" fill="#333333"/>
<path d="M75.624 46.008C75.56 45.912 75.452 45.78 75.3 45.612C75.148 45.444 75.016 45.32 74.904 45.24C75.608 44.816 76.164 44.292 76.572 43.668C76.98 43.036 77.276 42.328 77.46 41.544C77.652 40.752 77.764 39.912 77.796 39.024H76.164V38.052H77.808V35.1H78.852V38.052H81.516V39.024H78.84C78.832 39.184 78.82 39.344 78.804 39.504C78.796 39.664 78.784 39.824 78.768 39.984H79.548V44.484C79.548 44.572 79.568 44.636 79.608 44.676C79.648 44.716 79.72 44.74 79.824 44.748C79.832 44.748 79.864 44.752 79.92 44.76C79.984 44.76 80.048 44.764 80.112 44.772C80.184 44.772 80.224 44.772 80.232 44.772C80.384 44.772 80.504 44.752 80.592 44.712C80.68 44.664 80.748 44.552 80.796 44.376C80.844 44.192 80.88 43.9 80.904 43.5C81.016 43.556 81.168 43.62 81.36 43.692C81.56 43.764 81.728 43.82 81.864 43.86C81.808 44.428 81.72 44.848 81.6 45.12C81.48 45.4 81.312 45.58 81.096 45.66C80.888 45.748 80.624 45.792 80.304 45.792H79.56C79.192 45.792 78.924 45.728 78.756 45.6C78.596 45.48 78.516 45.272 78.516 44.976V41.46C78.3 42.396 77.96 43.26 77.496 44.052C77.04 44.836 76.416 45.488 75.624 46.008ZM72.24 45.924C72.224 45.788 72.192 45.612 72.144 45.396C72.096 45.18 72.052 45.016 72.012 44.904H72.696C72.856 44.904 72.968 44.88 73.032 44.832C73.096 44.776 73.128 44.672 73.128 44.52V41.46H71.364V38.412H75.816V41.46H74.124V44.88C74.124 45.576 73.72 45.924 72.912 45.924H72.24ZM70.728 37.548V36.612H73.092V35.1H74.184V36.612H76.44V37.548H70.728ZM72.36 40.584H74.82V39.276H72.36V40.584ZM71.436 44.904C71.332 44.84 71.18 44.768 70.98 44.688C70.78 44.6 70.62 44.552 70.5 44.544C70.636 44.344 70.776 44.092 70.92 43.788C71.064 43.476 71.192 43.16 71.304 42.84C71.424 42.52 71.508 42.24 71.556 42L72.54 42.252C72.468 42.524 72.372 42.824 72.252 43.152C72.132 43.472 72 43.788 71.856 44.1C71.712 44.412 71.572 44.68 71.436 44.904ZM75.432 44.196C75.368 44.02 75.276 43.816 75.156 43.584C75.044 43.344 74.924 43.108 74.796 42.876C74.668 42.644 74.544 42.452 74.424 42.3L75.276 41.88C75.396 42.048 75.524 42.248 75.66 42.48C75.796 42.704 75.924 42.928 76.044 43.152C76.164 43.376 76.26 43.576 76.332 43.752C76.26 43.768 76.164 43.808 76.044 43.872C75.932 43.928 75.816 43.988 75.696 44.052C75.584 44.116 75.496 44.164 75.432 44.196ZM80.484 37.776C80.388 37.632 80.26 37.468 80.1 37.284C79.94 37.1 79.772 36.92 79.596 36.744C79.428 36.56 79.272 36.412 79.128 36.3L79.884 35.652C80.02 35.772 80.172 35.92 80.34 36.096C80.516 36.272 80.684 36.452 80.844 36.636C81.012 36.812 81.148 36.976 81.252 37.128C81.148 37.184 81.016 37.284 80.856 37.428C80.696 37.572 80.572 37.688 80.484 37.776Z" fill="#333333"/>
</g>
<defs>
<clipPath id="clip0_2006_1512">
<rect width="250" height="46" fill="white" transform="translate(0.5)"/>
</clipPath>
</defs>
</svg>
