<svg width="356" height="362" viewBox="0 0 356 362" fill="none" xmlns="http://www.w3.org/2000/svg">
<path d="M152.816 28.9266C151.345 29.1886 149.835 29.1228 148.393 28.7338C147.146 28.3966 146.02 27.7156 145.142 26.7685C144.284 25.8136 143.732 24.6232 143.558 23.3513C143.494 23.1315 143.48 22.9003 143.516 22.6744C143.552 22.4485 143.639 22.2335 143.769 22.045C144.073 21.7579 144.465 21.5814 144.882 21.5439C145.256 21.4781 145.641 21.5038 146.002 21.6187C146.172 21.6771 146.322 21.782 146.435 21.9214C146.548 22.0609 146.619 22.2293 146.641 22.4075C146.774 23.2078 147.101 23.9634 147.593 24.6088C148.078 25.2333 148.74 25.6969 149.493 25.9391C150.392 26.2129 151.344 26.2648 152.267 26.0903C152.938 26.0266 153.588 25.8275 154.18 25.5052C154.772 25.1828 155.292 24.7438 155.709 24.2148C156.095 23.5885 156.352 22.892 156.467 22.1656C156.582 21.4392 156.552 20.6972 156.378 19.9826L153.777 3.35079L148.888 4.11544C148.728 4.1442 148.564 4.12994 148.411 4.07414C148.258 4.01833 148.123 3.92298 148.02 3.79784C147.777 3.5241 147.62 3.1843 147.57 2.82154C147.52 2.48965 147.559 2.15032 147.683 1.83836C147.743 1.68089 147.846 1.5434 147.98 1.44153C148.114 1.33966 148.274 1.2775 148.442 1.26213L155.061 0.226729C155.41 0.1674 155.769 0.211562 156.093 0.353767C156.249 0.420167 156.385 0.527179 156.485 0.663655C156.586 0.800131 156.648 0.961077 156.665 1.12973L159.537 19.4895C159.874 21.1369 159.761 22.8447 159.21 24.4334C158.726 25.686 157.86 26.7541 156.734 27.4857C155.545 28.2383 154.209 28.7294 152.816 28.9266Z" fill="#87D303"/>
<path d="M176.849 27.0126C175.543 27.0393 174.256 26.7021 173.132 26.0388C172 25.3874 171.042 24.4712 170.342 23.3687C169.645 22.293 169.266 21.042 169.251 19.7603L169.189 15.9183C169.161 14.6426 169.492 13.3847 170.142 12.2871C170.795 11.1706 171.718 10.2362 172.827 9.56946C173.95 8.88007 175.24 8.50983 176.558 8.49849C177.872 8.46707 179.169 8.78937 180.315 9.43164C181.444 10.0534 182.402 10.9433 183.105 12.0227C183.815 13.1101 184.195 14.3796 184.2 15.6781L184.262 19.5231C184.281 20.7966 183.941 22.0498 183.282 23.1397C182.619 24.2726 181.69 25.2268 180.575 25.9197C179.459 26.6235 178.168 27.0019 176.849 27.0126ZM176.803 24.1626C177.584 24.1597 178.347 23.9231 178.993 23.4834C179.638 23.0443 180.17 22.4572 180.543 21.7712C180.923 21.1007 181.118 20.3412 181.108 19.5706L181.046 15.7286C181.035 14.9744 180.821 14.2372 180.427 13.5939C180.031 12.9312 179.483 12.3722 178.828 11.9631C178.165 11.5421 177.392 11.3281 176.607 11.3484C175.826 11.3504 175.063 11.587 174.417 12.0276C173.782 12.4589 173.259 13.0351 172.89 13.7085C172.519 14.3668 172.33 15.1122 172.343 15.8678L172.405 19.7128C172.418 20.4809 172.629 21.2325 173.019 21.8945C173.405 22.5708 173.952 23.1408 174.613 23.5535C175.267 23.9691 176.031 24.1811 176.806 24.1625L176.803 24.1626Z" fill="#87D303"/>
<path d="M196.894 4.81308C196.638 4.78963 196.389 4.71582 196.161 4.59589C195.934 4.47595 195.732 4.31226 195.567 4.11418C195.404 3.93641 195.281 3.7261 195.205 3.4971C195.129 3.26811 195.103 3.02565 195.128 2.78572C195.152 2.54693 195.229 2.31644 195.352 2.11054C195.476 1.90464 195.643 1.72834 195.842 1.5941C196.258 1.29053 196.775 1.15818 197.286 1.22433C197.794 1.26701 198.265 1.50764 198.597 1.89433C198.757 2.07051 198.878 2.27916 198.951 2.50613C199.024 2.73311 199.048 2.97312 199.02 3.2099C198.993 3.44802 198.917 3.67803 198.797 3.88536C198.677 4.0927 198.515 4.27285 198.322 4.41441C198.123 4.57358 197.894 4.69094 197.649 4.75945C197.404 4.82795 197.147 4.8462 196.894 4.81308ZM194.385 27.6295C193.983 27.6013 193.604 27.4341 193.313 27.1565C193.193 27.0551 193.099 26.9273 193.038 26.7832C192.977 26.6391 192.95 26.4827 192.959 26.3264L194.666 10.6641C194.682 10.5048 194.738 10.3521 194.83 10.2211C194.922 10.0901 195.047 9.98519 195.192 9.91661C195.546 9.74289 195.944 9.68108 196.334 9.7394C196.732 9.76972 197.113 9.91609 197.428 10.1604C197.56 10.2555 197.664 10.384 197.73 10.5325C197.795 10.6811 197.82 10.8445 197.802 11.0058L196.095 26.6691C196.068 26.8257 196.005 26.9738 195.91 27.1011C195.816 27.2284 195.692 27.3313 195.549 27.4013C195.198 27.6058 194.787 27.6862 194.385 27.6295Z" fill="#87D303"/>
<path d="M206.535 29.3447C206.14 29.2701 205.783 29.0599 205.525 28.7503C205.419 28.6356 205.34 28.4976 205.296 28.3473C205.252 28.1969 205.244 28.0384 205.272 27.8842L208.801 12.5221C208.835 12.3656 208.909 12.2206 209.016 12.1012C209.123 11.9818 209.258 11.8921 209.41 11.8409C209.782 11.7098 210.186 11.695 210.566 11.7986C210.925 11.8687 211.252 12.0518 211.5 12.3209C211.608 12.4358 211.685 12.576 211.724 12.7286C211.764 12.8812 211.765 13.0413 211.726 13.1941L211.377 14.7132C212.013 14.0307 212.801 13.5084 213.678 13.1888C214.74 12.799 215.898 12.7465 216.992 13.0387C218.15 13.2972 219.205 13.894 220.023 14.7533C220.886 15.6544 221.508 16.758 221.832 17.9626C222.157 19.1672 222.173 20.434 221.879 21.6465L219.686 31.1907C219.653 31.363 219.572 31.5223 219.451 31.6501C219.331 31.7779 219.177 31.8688 219.007 31.9124C218.638 32.0236 218.246 32.0344 217.871 31.9438C217.511 31.8596 217.179 31.6826 216.909 31.4303C216.774 31.3177 216.673 31.1687 216.62 31.0009C216.566 30.8331 216.562 30.6535 216.607 30.4833L218.798 20.9469C218.967 20.2111 218.935 19.4433 218.704 18.7245C218.477 17.9882 218.082 17.3151 217.548 16.7592C217.018 16.1976 216.332 15.8076 215.578 15.6393C214.902 15.4878 214.197 15.5157 213.535 15.7202C212.827 15.9289 212.184 16.3165 211.669 16.8456C211.092 17.4587 210.7 18.2228 210.539 19.0494L208.346 28.5936C208.302 28.7461 208.222 28.8859 208.112 29.0013C208.003 29.1167 207.868 29.2044 207.718 29.2573C207.345 29.4182 206.928 29.449 206.535 29.3447Z" fill="#87D303"/>
<path d="M245.876 43.0245C244.68 42.4432 243.666 41.5447 242.946 40.427C242.236 39.3376 241.809 38.0882 241.705 36.7921C241.588 35.5332 241.825 34.2668 242.388 33.1353L246.782 24.3195C246.862 24.1809 246.974 24.0636 247.109 23.9778C247.244 23.8921 247.398 23.8403 247.558 23.827C247.952 23.7584 248.357 23.8218 248.711 24.0075C249.07 24.176 249.361 24.46 249.538 24.814C249.621 24.9499 249.669 25.1034 249.681 25.2619C249.692 25.4204 249.665 25.5792 249.603 25.7253L245.21 34.5411C244.873 35.2158 244.723 35.9686 244.777 36.7209C244.824 37.4924 245.055 38.2416 245.45 38.9063C245.845 39.5831 246.433 40.1272 247.138 40.4693C247.831 40.8259 248.615 40.9698 249.39 40.883C250.155 40.799 250.888 40.528 251.523 40.094C252.154 39.6763 252.663 39.1004 253.001 38.4239L257.412 29.5724C257.49 29.4317 257.603 29.3136 257.74 29.2295C257.876 29.1453 258.033 29.0981 258.193 29.0924C258.582 29.0448 258.976 29.1158 259.324 29.2961C259.695 29.4585 260.001 29.7385 260.196 30.0928C260.274 30.2266 260.319 30.3774 260.325 30.5321C260.332 30.6869 260.301 30.8409 260.234 30.9809L255.824 39.8306C255.261 40.9745 254.386 41.9366 253.301 42.6067C252.206 43.294 250.958 43.6985 249.668 43.7836C248.358 43.8812 247.047 43.6187 245.876 43.0245Z" fill="#87D303"/>
<path d="M264.327 53.8947C263.419 53.2914 262.612 52.5481 261.937 51.6925C261.413 51.0477 261.014 50.3116 260.759 49.5213C260.659 49.2771 260.614 49.0138 260.628 48.7502C260.641 48.4867 260.713 48.2293 260.837 47.9965C260.962 47.8222 261.122 47.6762 261.307 47.5681C261.505 47.4465 261.726 47.3658 261.956 47.331C262.16 47.2902 262.372 47.3314 262.546 47.4457C262.831 47.6767 263.028 47.9995 263.102 48.3592C263.273 48.9019 263.509 49.422 263.804 49.9082C264.297 50.6511 264.945 51.2792 265.702 51.7497C266.467 52.4038 267.442 52.7589 268.448 52.7492C268.763 52.7168 269.068 52.6175 269.341 52.4581C269.615 52.2986 269.852 52.0826 270.035 51.8245C270.237 51.5659 270.382 51.2678 270.461 50.9495C270.54 50.6312 270.552 50.2998 270.494 49.9768C270.342 49.3192 270.048 48.7026 269.633 48.1702C269.185 47.5697 268.7 46.9522 268.176 46.3177C267.662 45.7011 267.202 45.0407 266.802 44.344C266.417 43.6856 266.206 42.9401 266.188 42.1776C266.214 41.2906 266.519 40.4345 267.06 39.7314C267.554 39.0263 268.21 38.4491 268.971 38.0476C269.826 37.6005 270.793 37.4114 271.754 37.5034C273.006 37.6538 274.196 38.1351 275.2 38.8977C275.917 39.3861 276.575 39.9552 277.162 40.5937C277.658 41.1135 278.072 41.706 278.389 42.3508C278.642 42.9033 278.665 43.3301 278.458 43.6311C278.328 43.7939 278.169 43.9314 277.99 44.037C277.766 44.1844 277.518 44.2904 277.257 44.3501C277.137 44.3806 277.011 44.3847 276.889 44.362C276.767 44.3394 276.651 44.2906 276.549 44.219C276.31 44.0236 276.117 43.7771 275.985 43.4976C275.751 43.0813 275.487 42.6825 275.196 42.3041C274.801 41.8054 274.329 41.3731 273.798 41.024C273.239 40.6006 272.582 40.3274 271.888 40.2304C271.381 40.1682 270.867 40.2446 270.4 40.4513C270.022 40.6218 269.695 40.8893 269.454 41.2268C269.28 41.4519 269.163 41.7152 269.112 41.9947C269.061 42.2742 269.077 42.5619 269.16 42.8338C269.371 43.4502 269.694 44.0225 270.112 44.5222C270.577 45.1071 271.072 45.7152 271.597 46.3466C272.118 46.9729 272.568 47.6553 272.938 48.3811C273.304 49.0931 273.486 49.886 273.465 50.6866C273.394 51.6443 273.046 52.5607 272.463 53.3237C272.086 53.9188 271.577 54.4185 270.975 54.7837C270.373 55.1489 269.694 55.3696 268.993 55.4285C267.306 55.4802 265.654 54.9373 264.327 53.8947Z" fill="#87D303"/>
<path d="M274.412 65.4471C274.211 65.2708 274.064 65.0409 273.989 64.7843C273.943 64.6593 273.932 64.5241 273.957 64.3933C273.982 64.2625 274.042 64.141 274.131 64.0419C274.224 63.929 274.34 63.8367 274.47 63.7709L276.357 62.7707C276.182 62.4216 276.112 62.0291 276.155 61.6408C276.194 61.2497 276.353 60.8801 276.61 60.5828C276.775 60.3804 276.98 60.2136 277.211 60.0923C277.443 59.971 277.696 59.8978 277.957 59.877C278.214 59.8493 278.473 59.8752 278.72 59.9531C278.966 60.031 279.193 60.1591 279.387 60.3294C279.782 60.6612 280.033 61.1319 280.09 61.6442C280.125 61.9139 280.099 62.1879 280.017 62.4469C279.934 62.7058 279.795 62.9436 279.611 63.1433C279.54 63.2216 279.463 63.2945 279.381 63.3614C279.198 63.5032 279.005 63.6307 278.803 63.7427C278.525 63.9054 278.113 64.1326 277.568 64.4244C277.023 64.7162 276.292 65.1019 275.376 65.5815C275.217 65.6712 275.031 65.7 274.853 65.6624C274.69 65.6285 274.539 65.5545 274.412 65.4471Z" fill="#87D303"/>
<path d="M298.321 85.7121C297.445 84.626 296.807 83.3684 296.446 82.0204C296.105 80.7108 296.187 79.3268 296.68 78.0665C297.348 76.5217 298.424 75.1876 299.792 74.2072L308.768 67.1182C310.04 66.0114 311.594 65.2787 313.258 65.0013C314.603 64.825 315.971 65.0717 317.17 65.7073C318.405 66.3757 319.486 67.2955 320.344 68.4075C321.31 69.5661 322.002 70.9284 322.367 72.3923C322.664 73.6072 322.625 74.8804 322.254 76.0748C321.886 77.2066 321.185 78.201 320.242 78.9277C320.066 79.1084 319.855 79.252 319.622 79.3502C319.389 79.4484 319.139 79.4992 318.887 79.4997C318.472 79.3878 318.111 79.1295 317.872 78.7724C317.595 78.467 317.424 78.0808 317.384 77.6707C317.379 77.5096 317.41 77.3495 317.476 77.2025C317.543 77.0555 317.641 76.9256 317.765 76.8227C318.094 76.5304 318.393 76.2055 318.656 75.853C318.979 75.4241 319.217 74.938 319.358 74.4204C319.517 73.808 319.516 73.1652 319.355 72.5533C319.117 71.7045 318.696 70.9181 318.122 70.2489C317.734 69.6852 317.236 69.206 316.658 68.8404C316.08 68.4749 315.433 68.2305 314.758 68.1222C313.275 68.0744 311.835 68.6164 310.752 69.6295L301.775 76.7185C301.159 77.1247 300.631 77.65 300.22 78.2633C299.81 78.8767 299.526 79.5658 299.386 80.2903C299.346 80.9855 299.445 81.6816 299.678 82.338C299.91 82.9944 300.271 83.5981 300.739 84.1137C301.244 84.815 301.899 85.3961 302.655 85.8154C303.195 86.0987 303.802 86.2317 304.411 86.2005C304.951 86.161 305.479 86.0232 305.969 85.7939C306.413 85.5874 306.846 85.3584 307.267 85.1077C307.402 85.0066 307.56 84.939 307.726 84.9102C307.893 84.8814 308.064 84.8922 308.225 84.9419C308.589 85.0854 308.903 85.3319 309.129 85.6512C309.429 85.9715 309.598 86.3915 309.605 86.8299C309.482 87.3281 309.166 87.7569 308.726 88.0224C307.785 88.7811 306.639 89.2425 305.434 89.3479C304.164 89.4473 302.892 89.1938 301.757 88.6155C300.406 87.9209 299.231 86.9281 298.321 85.7121Z" fill="#87D303"/>
<path d="M309.714 102.46C309.034 101.335 308.778 100.004 308.995 98.708C309.149 98.0167 309.459 97.37 309.902 96.8176C310.346 96.2651 310.91 95.8217 311.551 95.5214C312.045 95.196 312.599 94.9722 313.181 94.8631C313.763 94.7541 314.36 94.762 314.939 94.8863C316.084 95.2267 317.105 95.8939 317.877 96.8062C318.906 97.9668 319.804 99.2367 320.556 100.593L321.46 102.177L322.146 101.786C322.799 101.413 323.379 100.926 323.859 100.348C324.344 99.7717 324.658 99.0709 324.765 98.3251C324.854 97.458 324.645 96.5865 324.173 95.8536C323.839 95.2216 323.407 94.6472 322.891 94.1524C322.557 93.8469 322.189 93.5806 321.794 93.3587C321.531 93.2392 321.307 93.0481 321.147 92.8072C321.055 92.6476 321.011 92.4655 321.018 92.2817C321.025 92.098 321.084 91.92 321.188 91.7681C321.37 91.4337 321.638 91.1539 321.964 90.9576C322.308 90.7616 322.76 90.8258 323.321 91.1502C323.96 91.5375 324.539 92.0152 325.04 92.5684C325.618 93.1802 326.121 93.8582 326.539 94.5882C327.341 95.842 327.755 97.3048 327.728 98.7929C327.661 100.002 327.232 101.163 326.497 102.125C325.745 103.098 324.805 103.91 323.732 104.51L315.282 109.333C315.144 109.409 314.989 109.45 314.831 109.454C314.673 109.458 314.517 109.425 314.374 109.357C314.009 109.195 313.711 108.912 313.529 108.557C313.336 108.238 313.259 107.863 313.311 107.495C313.325 107.337 313.376 107.186 313.46 107.052C313.544 106.918 313.658 106.806 313.793 106.725L315.113 105.971C314.083 105.76 313.089 105.404 312.159 104.913C311.122 104.352 310.271 103.499 309.714 102.46ZM312.395 102.081C312.777 102.738 313.33 103.28 313.995 103.649C314.665 104.04 315.406 104.294 316.175 104.396C316.816 104.514 317.477 104.416 318.056 104.118L319.772 103.139L319.121 101.999C318.625 101.123 318.071 100.28 317.463 99.477C316.982 98.7989 316.34 98.2513 315.595 97.8833C315.24 97.7376 314.855 97.6822 314.474 97.722C314.092 97.7619 313.727 97.8958 313.41 98.1117C313.044 98.281 312.722 98.5325 312.47 98.8467C312.217 99.1608 312.041 99.529 311.954 99.9226C311.842 100.67 311.997 101.433 312.391 102.078L312.395 102.081Z" fill="#87D303"/>
<path d="M318.667 119.385C318.503 119.024 318.47 118.617 318.574 118.234C318.606 118.08 318.673 117.936 318.77 117.813C318.867 117.69 318.991 117.591 319.133 117.525L333.702 111.526C333.85 111.463 334.011 111.439 334.17 111.457C334.329 111.475 334.481 111.535 334.61 111.629C334.928 111.852 335.171 112.167 335.306 112.532C335.46 112.869 335.501 113.246 335.425 113.608C335.394 113.763 335.325 113.908 335.223 114.028C335.122 114.149 334.992 114.242 334.845 114.3L333.208 114.973C333.833 115.043 334.444 115.207 335.02 115.46C335.649 115.735 336.228 116.115 336.73 116.584C337.273 117.089 337.697 117.709 337.971 118.398L338.46 119.586C338.522 119.74 338.548 119.905 338.538 120.07C338.528 120.235 338.481 120.395 338.4 120.54C338.235 120.871 337.951 121.129 337.605 121.262C337.268 121.408 336.888 121.424 336.541 121.305C336.382 121.259 336.236 121.179 336.112 121.069C335.989 120.959 335.891 120.823 335.827 120.67L335.338 119.482C335.021 118.724 334.498 118.071 333.827 117.598C333.101 117.078 332.255 116.753 331.368 116.655C330.335 116.551 329.294 116.719 328.346 117.142L320.334 120.441C320.184 120.493 320.024 120.508 319.867 120.486C319.709 120.464 319.56 120.404 319.43 120.313C319.079 120.098 318.81 119.771 318.667 119.385Z" fill="#87D303"/>
<path d="M326.094 141.971C325.677 140.52 325.599 138.993 325.865 137.507C326.104 136.188 326.7 134.959 327.589 133.955C328.512 132.946 329.714 132.234 331.044 131.913L334.869 130.895C336.092 130.561 337.385 130.587 338.594 130.969C339.82 131.348 340.933 132.027 341.83 132.946C342.759 133.89 343.421 135.063 343.748 136.347C344.082 137.563 344.103 138.844 343.808 140.07C343.525 141.27 342.94 142.378 342.109 143.289C341.241 144.231 340.115 144.895 338.871 145.201C338.158 145.455 337.382 145.483 336.652 145.28C336.168 145.099 335.772 144.738 335.547 144.273C335.313 143.785 335.126 143.275 334.989 142.751L332.846 134.695L331.723 134.994C331.099 135.134 330.517 135.418 330.022 135.822C329.527 136.227 329.133 136.741 328.872 137.325C328.326 138.615 328.254 140.057 328.67 141.395C328.837 142.151 329.162 142.863 329.623 143.485C329.946 143.888 330.305 144.262 330.695 144.603C330.977 144.815 331.187 145.109 331.297 145.445C331.364 145.685 331.339 145.94 331.228 146.163C331.12 146.386 330.967 146.584 330.777 146.743C330.619 146.884 330.432 146.988 330.23 147.05C330 147.072 329.767 147.047 329.547 146.976C329.327 146.906 329.123 146.791 328.949 146.64C328.313 146.177 327.772 145.596 327.356 144.93C326.776 144.019 326.349 143.02 326.094 141.971ZM334.889 134.152L336.692 140.928C336.769 141.386 336.967 141.815 337.266 142.171C337.419 142.265 337.591 142.32 337.77 142.334C337.949 142.347 338.128 142.317 338.293 142.247C339.009 142.062 339.663 141.689 340.188 141.168C340.722 140.644 341.112 139.991 341.32 139.273C341.539 138.512 341.539 137.706 341.321 136.945C341.134 136.22 340.766 135.555 340.251 135.011C339.737 134.468 339.093 134.064 338.379 133.837C337.669 133.615 336.91 133.604 336.193 133.805L334.889 134.152Z" fill="#87D303"/>
<path d="M330.049 163.715C329.846 162.219 329.989 160.697 330.467 159.265C330.893 157.994 331.66 156.864 332.685 155.998C333.743 155.132 335.036 154.602 336.398 154.475L340.33 154.02C341.588 153.866 342.864 154.078 344.005 154.631C345.165 155.182 346.167 156.015 346.922 157.053C347.706 158.121 348.192 159.379 348.331 160.696C348.486 161.947 348.321 163.218 347.852 164.388C347.399 165.535 346.661 166.548 345.707 167.33C344.713 168.136 343.502 168.631 342.228 168.754C341.484 168.903 340.713 168.819 340.02 168.513C339.567 168.264 339.227 167.85 339.072 167.356C338.911 166.839 338.799 166.308 338.739 165.77L337.78 157.489L336.625 157.623C335.988 157.671 335.371 157.868 334.823 158.197C334.275 158.526 333.811 158.978 333.469 159.518C332.742 160.716 332.463 162.133 332.681 163.517C332.738 164.289 332.956 165.04 333.323 165.722C333.585 166.168 333.886 166.59 334.222 166.983C334.471 167.234 334.637 167.555 334.696 167.903C334.728 168.15 334.667 168.4 334.525 168.604C334.386 168.809 334.206 168.983 333.995 169.113C333.818 169.229 333.619 169.306 333.409 169.338C333.178 169.326 332.952 169.268 332.744 169.166C332.537 169.065 332.352 168.922 332.201 168.747C331.638 168.197 331.187 167.545 330.871 166.825C330.428 165.84 330.151 164.79 330.049 163.715ZM339.88 157.246L340.687 164.212C340.697 164.676 340.832 165.129 341.076 165.524C341.213 165.639 341.376 165.719 341.551 165.758C341.726 165.797 341.907 165.794 342.081 165.748C342.816 165.668 343.517 165.393 344.112 164.953C344.716 164.512 345.196 163.922 345.506 163.241C345.832 162.52 345.949 161.722 345.843 160.938C345.762 160.194 345.494 159.482 345.063 158.87C344.632 158.258 344.053 157.765 343.379 157.437C342.709 157.116 341.959 156.995 341.221 157.091L339.88 157.246Z" fill="#87D303"/>
<path d="M331.25 179.632C331.242 179.235 331.374 178.848 331.62 178.537C331.71 178.409 331.829 178.303 331.967 178.228C332.104 178.153 332.258 178.112 332.415 178.107L348.171 178.359C348.331 178.36 348.488 178.402 348.627 178.481C348.766 178.561 348.882 178.675 348.964 178.813C349.168 179.144 349.266 179.529 349.246 179.918C349.253 180.288 349.142 180.651 348.929 180.954C348.84 181.084 348.719 181.189 348.578 181.26C348.437 181.331 348.28 181.365 348.123 181.359L346.353 181.331C346.899 181.642 347.396 182.034 347.824 182.495C348.294 182.996 348.675 183.574 348.951 184.203C349.25 184.882 349.394 185.619 349.373 186.36L349.352 187.645C349.349 187.811 349.308 187.973 349.233 188.12C349.158 188.268 349.052 188.397 348.921 188.498C348.637 188.737 348.274 188.861 347.904 188.846C347.536 188.848 347.182 188.712 346.91 188.465C346.782 188.36 346.679 188.228 346.609 188.078C346.539 187.929 346.504 187.765 346.505 187.6L346.526 186.315C346.535 185.493 346.312 184.686 345.883 183.986C345.422 183.221 344.773 182.588 343.997 182.147C343.09 181.643 342.067 181.385 341.029 181.4L332.364 181.261C332.206 181.249 332.052 181.2 331.917 181.117C331.781 181.035 331.667 180.921 331.585 180.785C331.347 180.449 331.229 180.043 331.25 179.632Z" fill="#87D303"/>
<path d="M328.448 209.969C328.524 209.626 328.697 209.312 328.946 209.065C329.065 208.943 329.214 208.855 329.378 208.811C329.543 208.766 329.716 208.767 329.88 208.814L354.784 214.476C354.956 214.506 355.115 214.586 355.242 214.706C355.368 214.826 355.456 214.981 355.495 215.151C355.589 215.521 355.592 215.909 355.502 216.28C355.422 216.654 355.252 217.003 355.007 217.296C354.898 217.433 354.752 217.535 354.585 217.588C354.419 217.642 354.241 217.644 354.073 217.596L330.875 212.322L328.569 222.463C328.542 222.619 328.471 222.765 328.363 222.882C328.256 223 328.117 223.083 327.963 223.124C327.628 223.214 327.276 223.221 326.937 223.144C326.599 223.067 326.284 222.909 326.021 222.682C325.898 222.58 325.807 222.445 325.76 222.292C325.712 222.139 325.71 221.976 325.753 221.822L328.448 209.969Z" fill="#87D303"/>
<path d="M321.594 233.247C322.034 232.009 322.903 230.969 324.044 230.316C324.677 229.998 325.374 229.83 326.082 229.823C326.79 229.817 327.491 229.973 328.129 230.28C328.694 230.457 329.218 230.744 329.67 231.126C330.123 231.507 330.495 231.975 330.764 232.502C331.226 233.604 331.355 234.817 331.137 235.992C330.889 237.523 330.474 239.022 329.899 240.462L329.244 242.165L329.982 242.448C330.683 242.718 331.427 242.859 332.179 242.864C332.932 242.876 333.673 242.676 334.319 242.287C335.046 241.807 335.589 241.094 335.858 240.265C336.136 239.606 336.307 238.908 336.364 238.195C336.389 237.743 336.363 237.29 336.285 236.844C336.211 236.564 336.217 236.27 336.302 235.993C336.368 235.822 336.481 235.672 336.628 235.561C336.775 235.451 336.95 235.384 337.133 235.368C337.507 235.297 337.893 235.328 338.252 235.456C338.621 235.598 338.857 235.989 338.961 236.629C339.065 237.369 339.062 238.119 338.951 238.858C338.842 239.692 338.635 240.51 338.335 241.296C337.871 242.71 337 243.956 335.831 244.877C334.852 245.59 333.682 245.993 332.471 246.032C331.242 246.066 330.019 245.851 328.875 245.4L319.794 241.908C319.648 241.849 319.518 241.755 319.415 241.635C319.312 241.516 319.239 241.373 319.202 241.22C319.096 240.835 319.126 240.425 319.286 240.059C319.411 239.708 319.653 239.412 319.971 239.219C320.101 239.13 320.251 239.073 320.408 239.053C320.564 239.034 320.723 239.051 320.872 239.104L322.291 239.65C321.803 238.719 321.449 237.724 321.241 236.693C321.019 235.535 321.141 234.337 321.594 233.247ZM323.583 235.084C323.316 235.796 323.246 236.566 323.381 237.315C323.503 238.081 323.775 238.816 324.182 239.476C324.497 240.046 324.99 240.496 325.587 240.757L327.432 241.466L327.902 240.241C328.267 239.302 328.569 238.34 328.806 237.361C329.027 236.559 329.045 235.716 328.859 234.906C328.747 234.539 328.546 234.206 328.274 233.935C328.002 233.665 327.667 233.467 327.299 233.358C326.937 233.182 326.538 233.092 326.135 233.095C325.732 233.099 325.335 233.195 324.976 233.377C324.326 233.763 323.833 234.366 323.583 235.079L323.583 235.084Z" fill="#87D303"/>
<path d="M311.167 255.744C311.81 254.58 312.76 253.614 313.914 252.953C315.039 252.3 316.309 251.939 317.609 251.903C318.872 251.851 320.124 252.154 321.225 252.776L329.8 257.622C329.935 257.709 330.046 257.827 330.125 257.966C330.203 258.106 330.247 258.262 330.252 258.422C330.3 258.819 330.216 259.221 330.012 259.565C329.825 259.914 329.526 260.19 329.163 260.349C329.023 260.424 328.867 260.465 328.709 260.468C328.55 260.471 328.392 260.436 328.25 260.366L319.674 255.52C319.018 255.148 318.274 254.96 317.52 254.974C316.747 254.982 315.987 255.173 315.302 255.533C314.606 255.892 314.032 256.451 313.654 257.137C313.261 257.811 313.077 258.586 313.123 259.364C313.167 260.133 313.4 260.879 313.8 261.536C314.185 262.188 314.733 262.727 315.391 263.099L324.002 267.965C324.138 268.05 324.25 268.169 324.327 268.31C324.404 268.451 324.443 268.609 324.44 268.77C324.468 269.161 324.376 269.551 324.178 269.889C323.997 270.25 323.701 270.542 323.337 270.718C323.199 270.789 323.046 270.826 322.892 270.824C322.737 270.823 322.584 270.783 322.448 270.71L313.84 265.845C312.726 265.223 311.811 264.3 311.198 263.181C310.569 262.052 310.23 260.784 310.212 259.492C310.183 258.179 310.513 256.882 311.167 255.744Z" fill="#87D303"/>
<path d="M301.879 270.886C302.115 270.56 302.458 270.327 302.848 270.227C302.997 270.179 303.155 270.167 303.31 270.192C303.464 270.216 303.611 270.277 303.739 270.368L316.114 280.12C316.241 280.218 316.34 280.346 316.402 280.494C316.465 280.641 316.488 280.802 316.469 280.961C316.429 281.354 316.27 281.725 316.013 282.024C315.797 282.319 315.492 282.536 315.143 282.645C314.993 282.693 314.833 282.703 314.678 282.674C314.524 282.644 314.379 282.576 314.257 282.476L313.033 281.512C313.378 282.378 313.514 283.314 313.428 284.242C313.326 285.369 312.879 286.437 312.148 287.301C311.42 288.237 310.43 288.936 309.303 289.308C308.121 289.703 306.857 289.794 305.63 289.572C304.403 289.351 303.251 288.824 302.281 288.041L294.593 281.982C294.451 281.878 294.342 281.736 294.278 281.573C294.214 281.41 294.197 281.232 294.23 281.06C294.288 280.679 294.445 280.319 294.687 280.019C294.917 279.73 295.219 279.506 295.562 279.37C295.722 279.295 295.9 279.268 296.074 279.292C296.249 279.315 296.413 279.388 296.547 279.501L304.229 285.555C304.822 286.023 305.53 286.321 306.278 286.42C307.04 286.529 307.818 286.459 308.548 286.215C309.282 285.976 309.928 285.522 310.402 284.913C310.827 284.366 311.103 283.718 311.201 283.032C311.315 282.303 311.239 281.557 310.981 280.865C310.674 280.081 310.151 279.401 309.473 278.902L301.784 272.843C301.665 272.738 301.573 272.606 301.516 272.458C301.458 272.31 301.436 272.15 301.453 271.992C301.467 271.586 301.617 271.196 301.879 270.886Z" fill="#87D303"/>
<path d="M282.402 292.328C283.445 291.254 284.751 290.473 286.191 290.063C287.393 289.752 288.661 289.816 289.825 290.248C291.037 290.714 292.126 291.453 293.006 292.408L295.606 295.138C296.514 296.061 297.2 297.178 297.614 298.405C297.998 299.588 298.003 300.861 297.631 302.047C297.153 303.461 296.312 304.725 295.194 305.712C294.493 306.405 293.686 306.98 292.803 307.418C292.145 307.754 291.43 307.962 290.694 308.031C290.46 308.069 290.22 308.055 289.992 307.99C289.763 307.926 289.552 307.812 289.372 307.658C289.217 307.484 289.101 307.278 289.034 307.055C288.95 306.808 288.919 306.544 288.945 306.284C288.967 306.033 289.081 305.799 289.265 305.627C289.493 305.439 289.776 305.329 290.072 305.315C290.517 305.253 290.953 305.139 291.371 304.976C292.015 304.696 292.598 304.291 293.085 303.785C293.577 303.385 293.981 302.889 294.272 302.326C294.563 301.764 294.735 301.147 294.778 300.515C294.736 299.297 294.213 298.145 293.323 297.313L290.723 294.584C289.935 293.656 288.811 293.078 287.598 292.978C286.958 292.992 286.329 293.138 285.748 293.406C285.167 293.674 284.648 294.059 284.222 294.536C283.675 295.012 283.232 295.596 282.923 296.251C282.745 296.673 282.61 297.112 282.522 297.561C282.487 297.867 282.353 298.154 282.14 298.377C281.951 298.566 281.704 298.686 281.438 298.715C281.184 298.742 280.928 298.71 280.688 298.622C280.462 298.543 280.257 298.413 280.09 298.242C279.946 298.048 279.846 297.827 279.795 297.591C279.743 297.356 279.743 297.113 279.793 296.877C279.892 296.118 280.139 295.385 280.52 294.721C281.015 293.827 281.651 293.02 282.402 292.328Z" fill="#87D303"/>
<path d="M271.251 302.311C271.569 302.065 271.964 301.937 272.366 301.951C272.522 301.947 272.677 301.98 272.819 302.047C272.961 302.114 273.085 302.213 273.181 302.336L288.634 324.039C288.728 324.168 288.787 324.32 288.806 324.479C288.824 324.638 288.801 324.799 288.738 324.947C288.589 325.312 288.333 325.623 288.002 325.839C287.685 326.081 287.304 326.224 286.905 326.252C286.744 326.268 286.581 326.241 286.433 326.174C286.285 326.107 286.158 326.001 286.064 325.868L278.847 315.731C278.938 316.647 278.819 317.571 278.499 318.434C278.117 319.465 277.417 320.347 276.5 320.953C275.539 321.647 274.392 322.039 273.207 322.08C271.961 322.127 270.723 321.86 269.607 321.302C268.492 320.745 267.534 319.916 266.823 318.892L261.145 310.918C261.039 310.778 260.974 310.612 260.958 310.437C260.942 310.262 260.977 310.087 261.057 309.931C261.219 309.581 261.471 309.281 261.788 309.061C262.09 308.848 262.442 308.717 262.81 308.683C262.984 308.656 263.162 308.68 263.323 308.752C263.484 308.823 263.621 308.939 263.718 309.086L269.39 317.052C269.829 317.667 270.428 318.151 271.122 318.451C271.825 318.767 272.591 318.917 273.361 318.89C274.128 318.868 274.87 318.616 275.491 318.167C276.054 317.762 276.5 317.217 276.787 316.586C277.099 315.918 277.235 315.181 277.18 314.446C277.105 313.609 276.796 312.811 276.287 312.143L270.609 304.168C270.525 304.034 270.474 303.881 270.46 303.723C270.446 303.565 270.47 303.406 270.53 303.259C270.657 302.871 270.911 302.537 271.251 302.311Z" fill="#87D303"/>
<path d="M242.713 326.892C242.991 326.763 243.303 326.725 243.604 326.781C243.753 326.809 243.891 326.874 244.007 326.97C244.123 327.067 244.212 327.191 244.266 327.332C245.07 329.137 245.944 331.01 246.889 332.951C247.834 334.892 248.781 336.829 249.732 338.763C250.683 340.7 251.558 342.566 252.358 344.362C252.462 344.562 252.52 344.783 252.527 345.008C252.535 345.234 252.492 345.458 252.402 345.665C252.211 346.064 251.878 346.379 251.468 346.547C251.071 346.732 250.62 346.767 250.199 346.646C249.981 346.58 249.782 346.464 249.616 346.309C249.451 346.154 249.323 345.962 249.242 345.75C248.442 343.954 247.637 342.056 246.827 340.057C246.017 338.058 245.21 336.057 244.407 334.054C243.603 332.052 242.799 330.148 241.995 328.341C241.926 328.202 241.897 328.045 241.911 327.89C241.924 327.735 241.981 327.587 242.073 327.461C242.23 327.216 242.451 327.019 242.713 326.892ZM239.878 320.62C240.119 320.504 240.382 320.441 240.649 320.435C240.916 320.429 241.181 320.481 241.427 320.586C241.913 320.779 242.303 321.157 242.51 321.636C242.621 321.872 242.683 322.128 242.694 322.389C242.704 322.649 242.662 322.909 242.571 323.153C242.48 323.403 242.338 323.631 242.154 323.823C241.97 324.014 241.748 324.165 241.502 324.265C241.268 324.371 241.016 324.429 240.76 324.433C240.503 324.438 240.249 324.39 240.012 324.293C239.766 324.202 239.541 324.062 239.351 323.881C239.161 323.701 239.01 323.483 238.907 323.241C238.8 323.004 238.741 322.748 238.734 322.488C238.727 322.227 238.773 321.968 238.869 321.726C238.95 321.481 239.082 321.257 239.256 321.066C239.43 320.875 239.642 320.723 239.878 320.62Z" fill="#87D303"/>
<path d="M199.233 332.288C200.708 332.056 202.217 332.153 203.651 332.572C204.89 332.935 206.002 333.639 206.86 334.605C207.698 335.577 208.225 336.779 208.373 338.054C208.432 338.275 208.442 338.506 208.401 338.732C208.36 338.957 208.269 339.17 208.135 339.356C207.825 339.636 207.429 339.805 207.011 339.834C206.636 339.892 206.252 339.858 205.893 339.735C205.724 339.674 205.577 339.566 205.467 339.424C205.357 339.282 205.289 339.112 205.271 338.934C205.154 338.131 204.843 337.368 204.365 336.713C203.893 336.078 203.24 335.601 202.493 335.343C201.6 335.051 200.649 334.979 199.723 335.135C199.051 335.185 198.396 335.37 197.797 335.68C197.199 335.99 196.67 336.418 196.242 336.938C195.843 337.557 195.571 338.248 195.442 338.971C195.312 339.695 195.326 340.438 195.485 341.156L197.741 357.838L202.644 357.175C202.805 357.15 202.969 357.168 203.121 357.227C203.272 357.286 203.405 357.384 203.506 357.511C203.744 357.79 203.893 358.133 203.935 358.496C203.978 358.829 203.933 359.168 203.802 359.477C203.739 359.633 203.633 359.769 203.497 359.868C203.361 359.967 203.199 360.025 203.031 360.037L196.392 360.935C196.041 360.987 195.684 360.936 195.362 360.787C195.208 360.717 195.075 360.607 194.977 360.469C194.879 360.33 194.821 360.168 194.807 359.999L192.317 341.583C192.014 339.929 192.162 338.224 192.746 336.647C193.256 335.405 194.144 334.355 195.285 333.647C196.49 332.919 197.835 332.456 199.233 332.288Z" fill="#87D303"/>
<path d="M175.191 333.728C176.497 333.743 177.772 334.121 178.875 334.82C179.985 335.508 180.913 336.454 181.578 337.578C182.24 338.676 182.578 339.938 182.553 341.22L182.492 345.062C182.479 346.338 182.108 347.585 181.423 348.661C180.735 349.756 179.782 350.66 178.653 351.291C177.508 351.944 176.207 352.273 174.889 352.242C173.575 352.232 172.289 351.868 171.164 351.189C170.056 350.532 169.127 349.612 168.458 348.51C167.783 347.401 167.444 346.12 167.481 344.822L167.542 340.977C167.564 339.703 167.943 338.462 168.637 337.393C169.336 336.282 170.295 335.358 171.432 334.701C172.57 334.034 173.872 333.697 175.191 333.728ZM175.146 336.578C174.365 336.556 173.595 336.768 172.935 337.187C172.276 337.605 171.726 338.175 171.331 338.849C170.93 339.507 170.711 340.26 170.696 341.03L170.635 344.872C170.622 345.626 170.812 346.37 171.185 347.026C171.56 347.701 172.09 348.277 172.731 348.707C173.38 349.149 174.146 349.387 174.931 349.392C175.713 349.415 176.483 349.203 177.142 348.783C177.79 348.373 178.332 347.814 178.722 347.152C179.114 346.506 179.327 345.767 179.338 345.011L179.399 341.166C179.411 340.398 179.224 339.64 178.855 338.966C178.491 338.278 177.962 337.691 177.315 337.257C176.674 336.821 175.918 336.584 175.143 336.578L175.146 336.578Z" fill="#87D303"/>
<path d="M154.666 355.515C154.922 355.544 155.17 355.623 155.395 355.747C155.62 355.871 155.819 356.039 155.979 356.24C156.139 356.421 156.258 356.634 156.329 356.865C156.401 357.095 156.422 357.338 156.393 357.578C156.363 357.816 156.282 358.045 156.155 358.248C156.027 358.452 155.857 358.625 155.655 358.755C155.233 359.051 154.713 359.173 154.204 359.096C153.697 359.044 153.231 358.794 152.906 358.401C152.749 358.221 152.632 358.01 152.564 357.782C152.495 357.553 152.476 357.313 152.509 357.077C152.54 356.839 152.621 356.61 152.745 356.405C152.869 356.2 153.034 356.024 153.23 355.886C153.432 355.731 153.664 355.618 153.91 355.554C154.157 355.49 154.414 355.477 154.666 355.515ZM157.627 332.748C158.028 332.784 158.404 332.959 158.69 333.242C158.807 333.346 158.899 333.475 158.957 333.621C159.015 333.766 159.039 333.923 159.026 334.079L157.01 349.708C156.991 349.867 156.932 350.019 156.837 350.148C156.742 350.277 156.616 350.38 156.47 350.445C156.112 350.612 155.712 350.666 155.323 350.6C154.926 350.562 154.549 350.408 154.238 350.157C154.108 350.06 154.007 349.929 153.944 349.779C153.881 349.629 153.86 349.465 153.881 349.304L155.898 333.675C155.927 333.518 155.993 333.372 156.091 333.246C156.188 333.121 156.314 333.02 156.458 332.953C156.813 332.755 157.225 332.683 157.627 332.748Z" fill="#87D303"/>
<path d="M145.543 330.798C145.937 330.88 146.29 331.098 146.54 331.413C146.645 331.529 146.72 331.669 146.761 331.82C146.802 331.971 146.807 332.13 146.776 332.284L142.932 347.567C142.895 347.723 142.818 347.866 142.708 347.983C142.599 348.1 142.462 348.187 142.309 348.235C141.934 348.359 141.531 348.365 141.152 348.254C140.795 348.176 140.472 347.987 140.23 347.712C140.124 347.595 140.05 347.454 140.014 347.3C139.977 347.147 139.98 346.987 140.022 346.835L140.402 345.324C139.752 345.993 138.953 346.499 138.071 346.8C137 347.168 135.842 347.196 134.755 346.882C133.603 346.599 132.56 345.981 131.76 345.105C130.916 344.187 130.317 343.071 130.018 341.86C129.718 340.649 129.728 339.383 130.047 338.177L132.435 328.681C132.472 328.51 132.557 328.352 132.68 328.227C132.802 328.102 132.958 328.014 133.129 327.974C133.5 327.87 133.893 327.868 134.266 327.966C134.624 328.057 134.952 328.241 135.217 328.499C135.35 328.614 135.447 328.765 135.497 328.934C135.547 329.103 135.547 329.283 135.499 329.452L133.112 338.939C132.928 339.671 132.944 340.44 133.16 341.163C133.372 341.904 133.754 342.585 134.275 343.151C134.794 343.724 135.472 344.128 136.222 344.311C136.895 344.477 137.599 344.463 138.265 344.272C138.978 344.078 139.628 343.704 140.154 343.186C140.743 342.585 141.151 341.829 141.329 341.006L143.718 331.511C143.765 331.359 143.848 331.221 143.96 331.108C144.071 330.995 144.208 330.91 144.359 330.861C144.735 330.707 145.152 330.685 145.543 330.798Z" fill="#87D303"/>
<path d="M106.487 316.316C107.671 316.921 108.666 317.84 109.364 318.972C110.052 320.075 110.453 321.333 110.531 322.631C110.623 323.892 110.361 325.153 109.774 326.273L105.205 334.999C105.122 335.136 105.007 335.251 104.87 335.334C104.734 335.417 104.579 335.466 104.419 335.476C104.024 335.537 103.619 335.465 103.269 335.272C102.914 335.097 102.629 334.807 102.458 334.449C102.379 334.312 102.333 334.157 102.325 333.999C102.317 333.84 102.347 333.682 102.412 333.537L106.982 324.811C107.332 324.143 107.497 323.394 107.458 322.64C107.426 321.868 107.211 321.114 106.83 320.442C106.448 319.757 105.871 319.201 105.173 318.845C104.487 318.475 103.707 318.315 102.93 318.386C102.163 318.455 101.425 318.711 100.781 319.132C100.142 319.537 99.621 320.103 99.2695 320.772L94.6814 329.534C94.6009 329.673 94.4858 329.789 94.3473 329.87C94.2087 329.951 94.0514 329.995 93.8908 329.998C93.5011 330.038 93.1084 329.959 92.7643 329.771C92.3972 329.602 92.0963 329.315 91.9082 328.957C91.8329 328.822 91.7916 328.67 91.7881 328.515C91.7847 328.361 91.819 328.207 91.8882 328.069L96.4754 319.309C97.0619 318.177 97.9555 317.232 99.0538 316.584C100.162 315.919 101.419 315.54 102.71 315.48C104.022 315.409 105.327 315.698 106.487 316.316Z" fill="#87D303"/>
<path d="M88.2636 305.073C89.1589 305.695 89.9501 306.455 90.6077 307.325C91.1174 307.98 91.5011 308.724 91.7395 309.52C91.8344 309.766 91.8739 310.03 91.8549 310.293C91.836 310.557 91.7591 310.812 91.6299 311.042C91.5017 311.214 91.3387 311.357 91.1514 311.461C90.9507 311.579 90.7285 311.655 90.4979 311.685C90.2929 311.721 90.0819 311.676 89.9103 311.558C89.6296 311.321 89.4398 310.994 89.373 310.633C89.2135 310.087 88.9887 309.562 88.7035 309.07C88.2258 308.317 87.5917 307.675 86.8441 307.189C86.0935 306.519 85.1257 306.144 84.1197 306.133C83.8041 306.159 83.4975 306.251 83.2206 306.405C82.9437 306.559 82.7028 306.77 82.5139 307.024C82.3068 307.278 82.1555 307.573 82.0698 307.89C81.9841 308.207 81.9659 308.538 82.0164 308.862C82.1549 309.522 82.4358 310.145 82.8396 310.686C83.2751 311.296 83.7478 311.923 84.2578 312.568C84.7594 313.195 85.2052 313.865 85.5902 314.57C85.9615 315.236 86.1574 315.986 86.1596 316.749C86.1154 317.635 85.7924 318.484 85.2367 319.176C84.7278 319.871 84.0608 320.434 83.2908 320.82C82.4266 321.249 81.4564 321.418 80.498 321.306C79.2491 321.129 78.0697 320.624 77.0811 319.84C76.3748 319.337 75.7285 318.754 75.1551 318.104C74.67 317.574 74.2688 316.973 73.9654 316.322C73.7233 315.764 73.709 315.337 73.9223 315.04C74.0559 314.88 74.2175 314.746 74.3994 314.644C74.6259 314.501 74.8762 314.401 75.1383 314.346C75.2593 314.318 75.385 314.317 75.5066 314.342C75.6282 314.367 75.743 314.419 75.8429 314.492C76.0784 314.693 76.2662 314.943 76.3926 315.225C76.6177 315.646 76.8729 316.05 77.1563 316.435C77.5404 316.942 78.0033 317.384 78.5274 317.744C79.0769 318.179 79.7287 318.465 80.4206 318.577C80.9259 318.65 81.4415 318.584 81.9124 318.387C82.2942 318.224 82.6262 317.964 82.8747 317.631C83.0528 317.41 83.1753 317.149 83.2322 316.871C83.2891 316.592 83.2786 316.304 83.2016 316.031C83.0033 315.41 82.6925 314.831 82.2849 314.323C81.8319 313.729 81.3497 313.11 80.8383 312.468C80.3305 311.831 79.8952 311.14 79.5405 310.406C79.1887 309.687 79.0238 308.89 79.0612 308.09C79.1521 307.134 79.5194 306.226 80.1182 305.475C80.5069 304.888 81.0264 304.399 81.6359 304.046C82.2453 303.694 82.9282 303.487 83.6309 303.443C85.3186 303.426 86.9584 304.003 88.2636 305.073Z" fill="#87D303"/>
<path d="M78.4035 293.32C78.6011 293.501 78.7433 293.734 78.8137 293.992C78.8572 294.117 78.8655 294.253 78.8378 294.383C78.8101 294.513 78.7473 294.634 78.6563 294.731C78.5611 294.842 78.4438 294.932 78.3118 294.995L76.4048 295.957C76.573 296.309 76.6355 296.703 76.5846 297.091C76.5377 297.481 76.3713 297.847 76.1082 298.139C75.9388 298.338 75.7308 298.501 75.4969 298.617C75.263 298.734 75.0079 298.802 74.747 298.817C74.4898 298.84 74.2307 298.809 73.9861 298.726C73.7416 298.643 73.5169 298.51 73.3263 298.336C72.9386 297.997 72.6964 297.521 72.6499 297.007C72.6211 296.737 72.6518 296.464 72.7399 296.207C72.8279 295.949 72.9712 295.714 73.1596 295.518C73.2323 295.442 73.3105 295.37 73.3938 295.305C73.5793 295.167 73.7752 295.043 73.9797 294.935C74.261 294.778 74.6772 294.56 75.2282 294.279C75.7792 293.998 76.5176 293.627 77.4434 293.167C77.6037 293.08 77.7901 293.055 77.9676 293.096C78.1293 293.133 78.2792 293.21 78.4035 293.32Z" fill="#87D303"/>
<path d="M54.9111 272.57C55.7647 273.674 56.3777 274.944 56.7105 276.299C57.0251 277.615 56.9152 278.997 56.3967 280.247C55.6975 281.778 54.595 283.09 53.2073 284.043L44.0894 290.949C42.7951 292.03 41.2268 292.731 39.5583 292.974C38.2091 293.123 36.847 292.849 35.6607 292.189C34.4396 291.496 33.3773 290.554 32.5425 289.425C31.5998 288.247 30.9359 286.871 30.6005 285.4C30.3275 284.18 30.3923 282.908 30.7879 281.721C31.1789 280.597 31.9 279.617 32.8571 278.909C33.0372 278.732 33.2509 278.593 33.4855 278.5C33.7201 278.406 33.971 278.36 34.2235 278.365C34.6363 278.485 34.9916 278.751 35.2239 279.113C35.4943 279.424 35.6575 279.813 35.6893 280.224C35.6912 280.385 35.6563 280.545 35.5872 280.69C35.5182 280.836 35.4167 280.964 35.2907 281.064C34.9559 281.35 34.6509 281.668 34.3806 282.016C34.0494 282.438 33.8013 282.919 33.6494 283.434C33.4784 284.043 33.4663 284.685 33.6144 285.3C33.8359 286.154 34.2409 286.949 34.8012 287.629C35.1773 288.201 35.6655 288.69 36.2363 289.067C36.807 289.444 37.4484 289.702 38.1216 289.824C39.6026 289.902 41.054 289.389 42.1573 288.398L51.2753 281.492C51.8995 281.098 52.4387 280.584 52.8614 279.979C53.2841 279.374 53.5817 278.691 53.7367 277.969C53.7903 277.275 53.7051 276.577 53.4862 275.916C53.2673 275.255 52.919 274.644 52.4615 274.119C51.9702 273.408 51.3278 272.814 50.5803 272.379C50.0456 272.085 49.4417 271.94 48.8317 271.959C48.2915 271.987 47.7611 272.114 47.2667 272.334C46.8185 272.531 46.3807 272.751 45.955 272.993C45.8174 273.092 45.6587 273.156 45.4916 273.182C45.3245 273.207 45.1538 273.193 44.9932 273.14C44.6323 272.989 44.3231 272.736 44.1036 272.412C43.8108 272.086 43.6498 271.663 43.6516 271.224C43.7853 270.729 44.11 270.306 44.5547 270.05C45.5113 269.31 46.6663 268.872 47.8728 268.791C49.1444 268.717 50.4116 268.997 51.5346 269.598C52.871 270.32 54.0257 271.336 54.9111 272.57Z" fill="#87D303"/>
<path d="M43.8457 255.599C44.5031 256.737 44.7314 258.072 44.4893 259.364C44.3214 260.051 43.9979 260.692 43.5438 261.235C43.0897 261.778 42.5171 262.21 41.8699 262.497C41.3694 262.812 40.811 263.025 40.2275 263.122C39.6439 263.219 39.0468 263.199 38.4711 263.064C37.3331 262.7 36.3259 262.013 35.573 261.085C34.5681 259.905 33.6959 258.617 32.9719 257.246L32.1 255.645L31.4064 256.023C30.7467 256.382 30.1572 256.857 29.666 257.425C29.169 257.991 28.8409 258.685 28.7191 259.428C28.6131 260.293 28.8043 261.169 29.2612 261.911C29.5818 262.549 30.0029 263.132 30.5082 263.637C30.836 263.949 31.1984 264.223 31.5884 264.452C31.8491 264.577 32.0696 264.772 32.2246 265.016C32.3126 265.178 32.3535 265.361 32.3425 265.544C32.3315 265.728 32.2691 265.904 32.1624 266.054C31.9737 266.385 31.7002 266.659 31.3701 266.849C31.023 267.038 30.5722 266.964 30.0177 266.629C29.3873 266.229 28.8182 265.74 28.328 265.177C27.7632 264.554 27.2741 263.866 26.871 263.128C26.0947 261.858 25.7108 260.388 25.7675 258.901C25.8586 257.694 26.3106 256.542 27.0647 255.595C27.8359 254.638 28.7924 253.846 29.8769 253.267L38.419 248.617C38.5592 248.545 38.7145 248.506 38.8723 248.506C39.0301 248.505 39.1859 248.541 39.3269 248.612C39.6885 248.782 39.9812 249.07 40.1561 249.429C40.3422 249.751 40.4113 250.127 40.3517 250.495C40.3348 250.651 40.2809 250.802 40.1945 250.934C40.1082 251.066 39.9918 251.176 39.8549 251.255L38.5203 251.981C39.5452 252.213 40.5321 252.589 41.4514 253.098C42.4772 253.679 43.3097 254.549 43.8457 255.599ZM41.1586 255.924C40.7901 255.259 40.2485 254.706 39.5912 254.324C38.9292 253.92 38.1936 253.652 37.4271 253.534C36.7894 253.404 36.1266 253.488 35.5418 253.773L33.8069 254.718L34.434 255.87C34.9127 256.756 35.4496 257.609 36.0411 258.424C36.5078 259.112 37.1383 259.672 37.8757 260.055C38.2273 260.208 38.6113 260.271 38.9933 260.239C39.3753 260.207 39.7434 260.08 40.0644 259.871C40.4334 259.709 40.76 259.464 41.0187 259.155C41.2774 258.846 41.4613 258.482 41.5559 258.09C41.6828 257.345 41.5435 256.579 41.1623 255.927L41.1586 255.924Z" fill="#87D303"/>
<path d="M35.2479 238.492C35.4042 238.856 35.4286 239.264 35.3168 239.645C35.2822 239.798 35.2123 239.94 35.1127 240.062C35.0132 240.183 34.8867 240.279 34.7434 240.343L20.0547 246.043C19.9062 246.103 19.7447 246.123 19.586 246.101C19.4273 246.08 19.2769 246.018 19.1493 245.921C18.8356 245.691 18.5992 245.372 18.4717 245.004C18.3253 244.664 18.2914 244.286 18.3748 243.925C18.4088 243.771 18.4812 243.628 18.5851 243.51C18.689 243.391 18.8212 243.3 18.9693 243.246L20.6194 242.606C19.9959 242.523 19.3885 242.347 18.8179 242.082C18.1941 241.794 17.6236 241.403 17.1307 240.924C16.5982 240.408 16.1873 239.779 15.9277 239.085L15.4628 237.887C15.4041 237.732 15.3808 237.566 15.3944 237.402C15.4081 237.237 15.4584 237.077 15.5417 236.935C15.7143 236.606 16.0034 236.354 16.3522 236.229C16.6919 236.089 17.0714 236.082 17.4165 236.207C17.5743 236.256 17.7192 236.34 17.8404 236.453C17.9616 236.565 18.0561 236.703 18.117 236.857L18.5819 238.055C18.8831 238.819 19.3934 239.482 20.0544 239.97C20.7689 240.504 21.609 240.846 22.4938 240.962C23.5238 241.088 24.5686 240.941 25.5243 240.537L33.6023 237.402C33.7534 237.353 33.914 237.341 34.0707 237.367C34.2274 237.392 34.3758 237.455 34.5035 237.549C34.8503 237.771 35.1124 238.103 35.2479 238.492Z" fill="#87D303"/>
<path d="M28.2877 215.751C28.6749 217.211 28.722 218.74 28.4254 220.22C28.1597 221.535 27.5383 222.752 26.629 223.738C25.6856 224.729 24.4681 225.416 23.1322 225.711L19.2854 226.65C18.0553 226.959 16.7624 226.907 15.5613 226.5C14.3422 226.096 13.2435 225.394 12.3651 224.457C11.4546 223.494 10.8163 222.307 10.5154 221.016C10.206 219.793 10.2117 218.512 10.5319 217.292C10.8393 216.097 11.4465 215 12.2962 214.106C13.1838 213.182 14.3238 212.54 15.5738 212.26C16.2931 212.02 17.0689 212.008 17.7952 212.226C18.2758 212.417 18.6642 212.786 18.8796 213.256C19.104 213.749 19.2805 214.263 19.4067 214.79L21.386 222.89L22.5157 222.614C23.1424 222.487 23.7307 222.216 24.2339 221.821C24.7371 221.426 25.1412 220.92 25.4141 220.342C25.9867 219.062 26.0879 217.621 25.7 216.274C25.5478 215.515 25.2375 214.797 24.7893 214.165C24.4738 213.755 24.1225 213.373 23.7397 213.025C23.4617 212.807 23.2576 212.508 23.1551 212.17C23.0929 211.929 23.1226 211.674 23.2385 211.454C23.3505 211.233 23.5082 211.038 23.7012 210.883C23.862 210.745 24.0509 210.644 24.2548 210.587C24.4854 210.57 24.7172 210.599 24.936 210.674C25.1549 210.749 25.3561 210.868 25.5277 211.023C26.1541 211.499 26.6831 212.091 27.0859 212.766C27.6477 213.689 28.0538 214.697 28.2877 215.751ZM19.3314 223.392L17.6664 216.578C17.5986 216.118 17.4093 215.685 17.1179 215.323C16.9671 215.226 16.7954 215.167 16.617 215.15C16.4387 215.133 16.2589 215.159 16.0925 215.226C15.3724 215.397 14.7107 215.756 14.1748 216.267C13.6302 216.78 13.227 217.425 13.0037 218.139C12.7695 218.895 12.7526 219.702 12.9549 220.467C13.1275 221.196 13.4822 221.869 13.9858 222.423C14.4894 222.978 15.1255 223.395 15.8344 223.636C16.5402 223.873 17.2994 223.899 18.02 223.713L19.3314 223.392Z" fill="#87D303"/>
<path d="M24.7812 193.938C24.9541 195.438 24.7806 196.958 24.2739 198.38C23.8216 199.643 23.0315 200.758 21.9896 201.603C20.9133 202.447 19.6096 202.951 18.2452 203.051L14.3031 203.427C13.0414 203.555 11.7695 203.317 10.6395 202.742C9.49126 202.167 8.50511 201.313 7.7708 200.26C7.00853 199.176 6.5479 197.909 6.43602 196.588C6.30594 195.333 6.49609 194.066 6.98871 192.905C7.46487 191.767 8.22373 190.769 9.19338 190.006C10.2048 189.22 11.4252 188.749 12.7026 188.652C13.4489 188.518 14.2184 188.618 14.9057 188.938C15.3538 189.196 15.6851 189.617 15.8306 190.114C15.9815 190.634 16.0822 191.168 16.1313 191.707L16.9233 200.009L18.081 199.898C18.7195 199.863 19.3408 199.678 19.8956 199.36C20.4503 199.042 20.9232 198.599 21.2765 198.066C22.0273 196.883 22.335 195.472 22.1451 194.083C22.1038 193.31 21.9003 192.554 21.5477 191.865C21.2945 191.413 21.0019 190.985 20.6732 190.585C20.4295 190.329 20.2706 190.004 20.2178 189.655C20.1909 189.408 20.2571 189.159 20.4035 188.958C20.5461 188.755 20.7302 188.585 20.9436 188.459C21.1226 188.346 21.3241 188.274 21.534 188.246C21.7648 188.263 21.9899 188.325 22.1956 188.431C22.4013 188.537 22.5834 188.683 22.7308 188.862C23.2822 189.422 23.7205 190.084 24.0218 190.811C24.445 191.804 24.7015 192.861 24.7812 193.938ZM14.8179 200.209L14.1516 193.226C14.1507 192.762 14.0257 192.306 13.7895 191.906C13.6542 191.788 13.4928 191.705 13.3187 191.662C13.1447 191.62 12.963 191.62 12.7888 191.661C12.0516 191.727 11.345 191.987 10.7412 192.415C10.1284 192.845 9.63644 193.425 9.31268 194.1C8.97199 194.814 8.83906 195.61 8.92909 196.396C8.99491 197.142 9.24899 197.86 9.66754 198.481C10.0861 199.102 10.6554 199.606 11.3222 199.947C11.9866 200.283 12.734 200.418 13.474 200.338L14.8179 200.209Z" fill="#87D303"/>
<path d="M23.89 177.96C23.8906 178.357 23.7531 178.741 23.501 179.047C23.4092 179.174 23.2889 179.278 23.1499 179.351C23.0109 179.423 22.8569 179.462 22.7002 179.464L6.95993 178.944C6.79993 178.941 6.64354 178.896 6.50602 178.814C6.36849 178.732 6.25454 178.616 6.17528 178.477C5.97694 178.143 5.88506 177.756 5.91188 177.368C5.91071 176.998 6.02774 176.637 6.24593 176.338C6.33768 176.21 6.46025 176.107 6.60235 176.039C6.74444 175.97 6.90146 175.939 7.05893 175.947L8.82716 176.006C8.28615 175.685 7.79694 175.285 7.37627 174.817C6.91562 174.308 6.54466 173.724 6.27919 173.091C5.99216 172.408 5.86079 171.669 5.8946 170.928L5.937 169.644C5.94364 169.479 5.98714 169.318 6.0643 169.172C6.14146 169.026 6.25033 168.899 6.38293 168.8C6.67029 168.566 7.03487 168.448 7.40497 168.469C7.77198 168.474 8.1239 168.616 8.39192 168.866C8.51773 168.974 8.61799 169.107 8.68534 169.258C8.75269 169.409 8.78543 169.573 8.78116 169.738L8.73875 171.022C8.71606 171.843 8.92498 172.653 9.34158 173.36C9.78874 174.132 10.427 174.776 11.195 175.23C12.0928 175.749 13.1109 176.024 14.1479 176.027L22.8043 176.313C22.9623 176.328 23.1147 176.379 23.2487 176.464C23.3828 176.549 23.4947 176.665 23.5752 176.802C23.807 177.142 23.9178 177.55 23.89 177.96Z" fill="#87D303"/>
<path d="M27.2965 147.749C27.214 148.09 27.0346 148.4 26.78 148.642C26.659 148.762 26.5078 148.847 26.3426 148.887C26.1773 148.928 26.0041 148.923 25.8413 148.874L1.06749 142.693C0.896386 142.66 0.73895 142.577 0.615103 142.454C0.491255 142.332 0.406563 142.175 0.371745 142.004C0.285049 141.632 0.29052 141.244 0.387685 140.875C0.475544 140.503 0.652825 140.158 0.904145 139.87C1.0153 139.736 1.16398 139.637 1.33129 139.587C1.49861 139.537 1.67701 139.538 1.84383 139.59L24.9201 145.347L27.4369 135.259C27.4671 135.103 27.5415 134.959 27.6513 134.844C27.7611 134.729 27.9016 134.648 28.0561 134.611C28.3931 134.527 28.7453 134.528 29.082 134.612C29.4188 134.696 29.7299 134.861 29.9884 135.093C30.1093 135.197 30.1972 135.335 30.2416 135.488C30.286 135.642 30.2848 135.805 30.2383 135.958L27.2965 147.749Z" fill="#87D303"/>
<path d="M34.6379 124.598C34.1723 125.827 33.2818 126.849 32.1278 127.479C31.4885 127.784 30.7877 127.938 30.0794 127.93C29.3711 127.922 28.6741 127.751 28.042 127.431C27.4809 127.243 26.963 126.945 26.5183 126.554C26.0737 126.163 25.7114 125.688 25.4524 125.156C25.0139 124.044 24.9094 122.828 25.1517 121.658C25.4309 120.132 25.8768 118.641 26.4812 117.213L27.1706 115.524L26.4391 115.225C25.7432 114.941 25.0019 114.785 24.2507 114.764C23.4977 114.737 22.7522 114.922 22.0991 115.298C21.3617 115.763 20.8044 116.465 20.5184 117.288C20.2265 117.941 20.0413 118.636 19.9697 119.347C19.9352 119.799 19.9525 120.253 20.0213 120.7C20.0895 120.981 20.0775 121.276 19.9865 121.55C19.9171 121.721 19.8012 121.868 19.652 121.976C19.5029 122.083 19.3264 122.147 19.1429 122.159C18.7673 122.222 18.3817 122.183 18.0259 122.047C17.6598 121.898 17.4314 121.502 17.3406 120.86C17.2516 120.118 17.2706 119.368 17.3968 118.632C17.5223 117.8 17.7459 116.985 18.0628 116.206C18.5554 114.801 19.452 113.573 20.6401 112.677C21.6333 111.983 22.812 111.605 24.0231 111.59C25.2529 111.582 26.4718 111.822 27.6065 112.297L36.6155 115.974C36.7604 116.037 36.8883 116.133 36.9888 116.255C37.0893 116.377 37.1595 116.521 37.1938 116.675C37.2914 117.062 37.2532 117.471 37.0857 117.834C36.9537 118.182 36.7056 118.474 36.3834 118.66C36.251 118.746 36.1002 118.8 35.9432 118.816C35.7862 118.833 35.6275 118.812 35.48 118.756L34.0725 118.181C34.5414 119.122 34.8745 120.125 35.0617 121.16C35.2601 122.322 35.1128 123.518 34.6379 124.598ZM32.6861 122.721C32.9682 122.015 33.0538 121.245 32.934 120.494C32.8283 119.725 32.5712 118.985 32.1776 118.316C31.8749 117.74 31.3902 117.28 30.7989 117.007L28.9691 116.26L28.4732 117.475C28.0893 118.407 27.7676 119.363 27.5102 120.337C27.2728 121.134 27.2375 121.977 27.4074 122.79C27.5115 123.16 27.7055 123.497 27.9721 123.773C28.2387 124.049 28.5696 124.254 28.9351 124.37C29.294 124.554 29.6904 124.652 30.0935 124.657C30.4966 124.662 30.8954 124.574 31.2588 124.399C31.9165 124.026 32.4219 123.434 32.6864 122.725L32.6861 122.721Z" fill="#87D303"/>
<path d="M45.5169 102.317C44.8505 103.468 43.881 104.414 42.7141 105.051C41.5761 105.68 40.299 106.015 38.9987 106.026C37.7347 106.051 36.4887 105.723 35.4009 105.079L26.9261 100.059C26.7936 99.9693 26.6848 99.8487 26.609 99.7077C26.5333 99.5666 26.4928 99.4094 26.4911 99.2493C26.4511 98.8514 26.5438 98.4515 26.7546 98.1118C26.9486 97.7666 27.253 97.4966 27.6189 97.3452C27.7604 97.273 27.9171 97.2354 28.0759 97.2357C28.2348 97.2361 28.3913 97.2743 28.5325 97.3471L37.0073 102.367C37.6559 102.752 38.396 102.955 39.1501 102.956C39.9231 102.965 40.6871 102.789 41.3786 102.444C42.0823 102.098 42.6675 101.552 43.0597 100.873C43.4656 100.207 43.6659 99.4363 43.6355 98.6571C43.607 97.8878 43.3898 97.1372 43.003 96.4716C42.632 95.8126 42.0945 95.2626 41.4443 94.8766L32.935 89.8362C32.8004 89.7486 32.6907 89.6276 32.6167 89.485C32.5427 89.3423 32.5069 89.183 32.5128 89.0224C32.4935 88.6311 32.5928 88.2431 32.7979 87.9093C32.9867 87.5516 33.2882 87.2661 33.6556 87.097C33.7947 87.0288 33.9484 86.9956 34.1032 87.0002C34.258 87.0048 34.4094 87.0472 34.5442 87.1236L43.0517 92.1629C44.1518 92.8079 45.0481 93.7496 45.6378 94.8803C46.2441 96.0221 46.5571 97.2966 46.5487 98.5894C46.5512 99.9027 46.1944 101.192 45.5169 102.317Z" fill="#87D303"/>
<path d="M55.1149 87.3741C54.8718 87.6949 54.5245 87.921 54.1327 88.0134C53.9825 88.0578 53.824 88.0666 53.6697 88.039C53.5155 88.0114 53.3699 87.9483 53.2443 87.8545L41.0649 77.8495C40.94 77.7493 40.8431 77.6184 40.7838 77.4696C40.7245 77.3209 40.7048 77.1592 40.7266 77.0006C40.775 76.6089 40.9415 76.2413 41.204 75.9466C41.4266 75.6567 41.7362 75.4455 42.0874 75.344C42.2383 75.2986 42.3983 75.2918 42.5525 75.3244C42.7067 75.357 42.8503 75.4278 42.9699 75.5305L44.1743 76.5198C43.8467 75.6464 43.7304 74.708 43.8348 73.7811C43.9595 72.6559 44.4283 71.5965 45.1772 70.7475C45.9246 69.826 46.9291 69.1474 48.063 68.7979C49.2541 68.4271 50.5193 68.3619 51.7422 68.6083C52.965 68.8548 54.1063 69.4049 55.0608 70.2081L62.6277 76.4241C62.7671 76.5305 62.8734 76.6744 62.9343 76.839C62.9951 77.0035 63.0078 77.182 62.9711 77.3535C62.9061 77.7336 62.741 78.0896 62.4929 78.3848C62.2571 78.6695 61.9508 78.8875 61.6046 79.017C61.4434 79.088 61.2653 79.1114 61.0913 79.0845C60.9172 79.0577 60.7545 78.9816 60.6223 78.8652L53.0616 72.6543C52.4785 72.1748 51.7767 71.8617 51.0303 71.7481C50.2701 71.6229 49.4912 71.6774 48.7558 71.9071C48.0168 72.1315 47.3619 72.572 46.8754 73.1718C46.4384 73.7097 46.1496 74.3525 46.0375 75.0365C45.9088 75.7635 45.9693 76.5115 46.2134 77.2084C46.505 77.9984 47.0144 78.6898 47.6825 79.2024L55.2494 85.4184C55.3662 85.5261 55.4555 85.6601 55.5102 85.8092C55.5649 85.9584 55.5832 86.1184 55.5638 86.276C55.5415 86.682 55.3834 87.0687 55.1149 87.3741Z" fill="#87D303"/>
<path d="M75.0124 66.33C73.9478 67.3826 72.6256 68.1373 71.1778 68.5185C69.9696 68.805 68.7026 68.7147 67.5472 68.2597C66.3448 67.7687 65.2715 67.0075 64.4106 66.035L61.8658 63.2528C60.9774 62.3106 60.3137 61.1796 59.9243 59.9445C59.565 58.7541 59.5851 57.4813 59.9819 56.3028C60.4886 54.8987 61.3545 53.652 62.4933 52.687C63.2083 52.0092 64.0268 51.4499 64.9182 51.0303C65.5827 50.7071 66.3027 50.5136 67.0397 50.4601C67.2747 50.4272 67.514 50.4459 67.7411 50.5149C67.9681 50.584 68.1773 50.7017 68.3541 50.86C68.5058 51.0368 68.6169 51.2447 68.6795 51.4691C68.759 51.7187 68.7839 51.9825 68.7526 52.2426C68.7258 52.4928 68.6073 52.7243 68.42 52.8925C68.1877 53.0763 67.9022 53.1801 67.6061 53.1882C67.1604 53.2412 66.7224 53.3462 66.301 53.5009C65.6509 53.768 65.0601 54.161 64.5625 54.6573C64.0628 55.0468 63.6488 55.5352 63.3461 56.0918C63.0435 56.6484 62.8588 57.2614 62.8035 57.8926C62.8205 59.1112 63.3204 60.2734 64.1935 61.1238L66.7375 63.9053C67.5068 64.8493 68.619 65.4498 69.8302 65.5751C70.4699 65.5735 71.1024 65.4405 71.6885 65.1842C72.2746 64.9279 72.8018 64.5539 73.2373 64.0854C73.794 63.6208 74.2483 63.0456 74.5712 62.3964C74.7579 61.9785 74.9009 61.5424 74.9981 61.0952C75.0397 60.7895 75.1798 60.5057 75.3973 60.2868C75.5895 60.1014 75.8394 59.9871 76.1054 59.963C76.3599 59.9415 76.6159 59.9786 76.8538 60.0714C77.0785 60.1545 77.2807 60.2889 77.4444 60.4638C77.5838 60.6601 77.6799 60.8838 77.7264 61.1201C77.7728 61.3563 77.7686 61.5998 77.7139 61.8342C77.5986 62.5915 77.3367 63.3189 76.9431 63.976C76.4296 64.8589 75.7778 65.6537 75.0124 66.33Z" fill="#87D303"/>
<path d="M86.3589 56.5547C86.0357 56.7941 85.6392 56.9134 85.2376 56.892C85.081 56.8924 84.9265 56.8563 84.7864 56.7866C84.6462 56.7168 84.5243 56.6154 84.4302 56.4902L69.4308 34.4839C69.339 34.3528 69.2829 34.2001 69.2678 34.0408C69.2527 33.8814 69.2792 33.7209 69.3446 33.5748C69.5011 33.2129 69.764 32.9071 70.0984 32.6982C70.4205 32.4629 70.8047 32.3273 71.2031 32.3081C71.365 32.295 71.5274 32.3251 71.6737 32.3954C71.8201 32.4657 71.9451 32.5737 72.036 32.7082L79.0419 42.987C78.9697 42.07 79.1075 41.1486 79.4449 40.2929C79.8477 39.2708 80.5652 38.4034 81.4936 37.8161C82.4692 37.1423 83.623 36.7736 84.8085 36.7568C86.0548 36.7356 87.2865 37.0284 88.39 37.6081C89.4935 38.1877 90.4335 39.0357 91.1233 40.074L96.6345 48.1597C96.7384 48.3009 96.7999 48.4688 96.812 48.6436C96.8241 48.8185 96.7863 48.9932 96.7029 49.1474C96.5338 49.4937 96.2756 49.7887 95.9547 50.0021C95.6487 50.209 95.2937 50.332 94.9253 50.359C94.7509 50.3818 94.5735 50.3543 94.4141 50.2797C94.2548 50.205 94.1201 50.0863 94.026 49.9377L88.5204 41.8602C88.094 41.2364 87.5052 40.7408 86.8178 40.4271C86.1217 40.0968 85.3592 39.9307 84.5889 39.9417C83.8224 39.9486 83.0756 40.1854 82.4451 40.6214C81.875 41.0146 81.4176 41.5499 81.118 42.1744C80.7921 42.8357 80.6417 43.5697 80.6813 44.306C80.7391 45.1434 81.0322 45.9476 81.527 46.6257L87.0382 54.7114C87.1198 54.8475 87.168 55.0011 87.1785 55.1595C87.189 55.3179 87.1617 55.4765 87.0988 55.6222C86.9642 56.0075 86.7035 56.336 86.3589 56.5547Z" fill="#87D303"/>
<path d="M115.391 32.5728C115.11 32.6955 114.798 32.7276 114.498 32.6648C114.35 32.6345 114.212 32.5668 114.099 32.468C113.985 32.3692 113.898 32.2427 113.848 32.1008C113.081 30.2798 112.245 28.3894 111.34 26.4296C110.435 24.4699 109.527 22.5136 108.616 20.5607C107.705 18.605 106.868 16.7213 106.105 14.9094C106.005 14.7072 105.951 14.4852 105.948 14.2597C105.945 14.0341 105.993 13.8108 106.087 13.606C106.286 13.21 106.625 12.9024 107.039 12.7429C107.44 12.5658 107.891 12.5398 108.31 12.6697C108.526 12.7405 108.723 12.8599 108.885 13.0186C109.048 13.1774 109.172 13.3713 109.248 13.5854C110.011 15.3973 110.777 17.3109 111.547 19.3263C112.316 21.3417 113.082 23.3587 113.843 25.3772C114.606 27.3955 115.371 29.3158 116.139 31.1381C116.205 31.2793 116.231 31.4359 116.214 31.5908C116.197 31.7458 116.137 31.893 116.042 32.0165C115.88 32.2584 115.655 32.4509 115.391 32.5728ZM118.098 38.9014C117.854 39.0123 117.59 39.0699 117.323 39.0702C117.055 39.0705 116.791 39.0135 116.548 38.9031C116.066 38.7005 115.684 38.3149 115.486 37.831C115.38 37.5928 115.323 37.3358 115.318 37.0752C115.313 36.8146 115.36 36.5555 115.457 36.3134C115.553 36.0655 115.699 35.8404 115.887 35.6526C116.075 35.4648 116.3 35.3186 116.548 35.2233C116.784 35.1221 117.037 35.0701 117.294 35.0706C117.55 35.0711 117.803 35.124 118.038 35.2262C118.283 35.3218 118.505 35.4663 118.691 35.6511C118.877 35.8358 119.024 36.0567 119.121 36.3001C119.224 36.5393 119.278 36.7968 119.279 37.0572C119.281 37.3176 119.23 37.5756 119.129 37.8159C119.042 38.0588 118.906 38.2808 118.728 38.4678C118.551 38.6547 118.336 38.8024 118.098 38.9014Z" fill="#87D303"/>
</svg>
